<?xml version="1.0" encoding="UTF-8"?>
<!DOCTYPE svg PUBLIC "-//W3C//DTD SVG 1.1//EN" "http://www.w3.org/Graphics/SVG/1.1/DTD/svg11.dtd">
<svg xmlns="http://www.w3.org/2000/svg" version="1.1" width="400px" height="400px" style="shape-rendering:geometricPrecision; text-rendering:geometricPrecision; image-rendering:optimizeQuality; fill-rule:evenodd; clip-rule:evenodd" xmlns:xlink="http://www.w3.org/1999/xlink">
<g><path fill="#020202" fill-opacity="0.996" stroke="#020202" stroke-width="0.5" stroke-opacity="0.996" d="M 197.63,165.98 C 197.46,165.12 197.78,164.53 198.59,164.23 C 206.13,162.89 213.68,161.6 221.22,160.36 C 221.62,160.64 221.81,161.03 221.78,161.53 C 221.56,168.52 221.48,175.51 221.53,182.5 C 221.45,183.5 221.61,184.45 222.01,185.36 C 222.18,185.43 222.35,185.5 222.52,185.57 C 228.15,182.61 234.13,181.52 240.46,182.3 C 248.34,183.35 253.74,187.57 256.65,194.96 C 257.96,198.35 258.67,201.86 258.79,205.5 C 259.27,212.19 258.02,218.53 255.03,224.52 C 250.78,231.84 244.55,236.57 236.34,238.71 C 234.73,239.11 233.1,239.44 231.47,239.72 C 224.78,240.26 218.13,239.96 211.53,238.81 C 209.43,238.33 207.37,237.79 205.35,237.18 C 205.5,215.96 205.35,194.74 204.91,173.5 C 204.77,170.7 203.49,168.64 201.07,167.32 C 200.24,167.13 199.41,166.96 198.58,166.8 C 198.11,166.69 197.8,166.42 197.63,165.98 Z M 41.73,162.92 C 42.33,161.89 43.24,161.47 44.48,161.66 C 64.51,161.67 84.55,161.67 104.58,161.65 C 105.24,161.66 105.72,161.94 106.03,162.51 C 106.2,168.89 106.38,175.27 106.58,181.65 C 106.62,183.09 105.92,183.85 104.48,183.94 C 103.62,184.09 102.92,183.84 102.39,183.18 C 101.24,179.3 99.53,175.69 97.25,172.36 C 95.16,169.48 92.43,167.46 89.06,166.32 C 87.89,166.05 86.7,165.9 85.5,165.89 C 81.49,165.83 77.47,165.82 73.46,165.84 C 72.86,165.84 72.4,166.09 72.1,166.6 C 71.1,176.83 70.79,187.07 71.17,197.34 C 71.5,197.77 71.94,197.96 72.5,197.91 C 75.86,198.02 79.17,197.68 82.42,196.87 C 83.86,196.04 85.04,194.92 85.97,193.53 C 86.92,191.65 87.62,189.68 88.07,187.62 C 89.06,186.91 90.16,186.76 91.35,187.16 C 91.8,187.48 92.01,187.92 91.97,188.49 C 91.95,196.16 91.96,203.84 91.99,211.51 C 91.76,212.9 90.93,213.43 89.49,213.11 C 88.88,213.12 88.4,212.89 88.03,212.41 C 87.58,210.37 86.88,208.41 85.94,206.55 C 85.02,205.15 83.84,204.04 82.38,203.23 C 79.14,202.62 75.86,202.31 72.55,202.31 C 71.71,202.28 71.23,202.69 71.11,203.52 C 71.06,207.52 71.12,211.51 71.28,215.5 C 71.75,219.15 72.02,222.82 72.12,226.5 C 72.35,228.41 72.88,230.24 73.73,231.96 C 74.22,232.71 74.86,233.29 75.64,233.72 C 77.99,234.56 80.35,235.24 82.73,235.76 C 83.2,236.85 83,237.76 82.12,238.47 C 69.21,238.55 56.29,238.57 43.37,238.56 C 42.19,238.42 41.68,237.74 41.85,236.51 C 41.94,236.24 42.03,235.96 42.12,235.69 C 43.59,235.11 45.12,234.69 46.71,234.41 C 49.48,233.37 51.21,231.4 51.91,228.48 C 52.36,226.51 52.64,224.52 52.76,222.5 C 53.38,207.18 53.36,191.85 52.71,176.53 C 52.73,172.73 51.5,169.42 49.02,166.6 C 47.02,165.55 44.88,164.98 42.61,164.89 C 41.98,164.39 41.69,163.73 41.73,162.92 Z M 98.1,212 C 97.7,202.6 100.96,194.72 107.87,188.37 C 114.24,183.42 121.45,181.35 129.5,182.14 C 141.09,183.05 148.78,189 152.55,199.98 C 154.39,206.76 154.48,213.55 152.82,220.37 C 149.27,231.33 141.82,237.79 130.47,239.76 C 123.89,240.69 117.59,239.75 111.59,236.93 C 104.45,232.82 100.15,226.69 98.71,218.55 C 98.31,216.38 98.1,214.2 98.1,212 Z M 153.94,237.02 C 153.96,236.33 154.24,235.79 154.79,235.39 C 156.49,235.3 158.06,234.82 159.51,233.95 C 161,232.07 161.72,229.91 161.68,227.47 C 162.06,217.48 162.07,207.49 161.71,197.5 C 161.62,195.56 161.23,193.69 160.53,191.89 C 158.98,190.08 157.01,189.09 154.6,188.91 C 153.97,188.32 153.9,187.66 154.4,186.94 C 155.05,186.56 155.75,186.3 156.5,186.18 C 163.47,184.89 170.44,183.62 177.41,182.39 C 178.05,182.46 178.39,182.82 178.44,183.46 C 178.42,186.16 178.33,188.86 178.15,191.55 C 178.05,192 178.17,192.36 178.49,192.64 C 180.29,190.58 182.12,188.52 183.98,186.47 C 188.49,182.32 193.66,181.15 199.49,182.94 C 200.78,183.28 201.16,184.06 200.63,185.29 C 199.05,189.6 197.29,193.8 195.34,197.91 C 194.77,198.09 194.21,198.06 193.66,197.82 C 189.38,195.71 184.99,195.43 180.49,196.98 C 179.53,197.25 178.81,197.79 178.31,198.63 C 177.98,206.58 177.94,214.53 178.16,222.5 C 178.2,225.52 178.49,228.52 179.05,231.49 C 179.39,232.98 180.26,234.05 181.65,234.69 C 183.46,235.04 185.29,235.3 187.14,235.47 C 187.94,236.22 188.09,237.09 187.58,238.1 C 185.98,238.49 184.34,238.69 182.67,238.73 C 181.89,238.14 181.11,238.13 180.33,238.72 C 172.31,238.56 164.29,238.5 156.26,238.55 C 155.05,238.64 154.27,238.13 153.94,237.02 Z M 263.17,212 C 263.31,207.79 264.01,203.68 265.29,199.67 C 270.6,187.27 280,181.42 293.5,182.13 C 303.71,183.14 310.18,188.61 312.92,198.51 C 313.78,201.44 314.13,204.43 313.97,207.47 C 313.37,208.26 312.55,208.58 311.53,208.45 C 301.32,208.38 291.11,208.41 280.9,208.53 C 280.46,208.73 280.22,209.07 280.17,209.56 C 280.16,212.77 280.59,215.92 281.45,219.01 C 284.03,226.77 289.38,231.05 297.5,231.84 C 300.86,232.16 304.13,231.75 307.3,230.6 C 308.71,229.87 310.12,229.16 311.53,228.46 C 312.69,228.56 313.11,229.19 312.78,230.36 C 311.17,232.47 309.24,234.22 306.98,235.63 C 300.67,239.49 293.85,240.87 286.53,239.74 C 275.26,237.68 267.89,231.21 264.41,220.3 C 263.83,217.56 263.42,214.79 263.17,212 Z M 317,223 C 316.55,220.98 317.31,220.05 319.29,220.23 C 320.41,222.1 321.43,224.04 322.36,226.05 C 324.87,231.14 328.92,234.05 334.5,234.76 C 339.72,235.25 343.08,233 344.58,228.02 C 345.13,224.04 343.61,221.13 340.02,219.29 C 335.7,217.33 331.33,215.47 326.92,213.72 C 320.64,210.57 317.71,205.5 318.13,198.5 C 318.83,192.6 321.78,188.19 326.97,185.27 C 330.23,183.4 333.74,182.36 337.5,182.16 C 342.2,181.89 346.86,182.23 351.47,183.19 C 353.21,183.55 354.85,184.18 356.37,185.06 C 356.76,185.47 356.95,185.95 356.95,186.51 C 356.99,190.18 357.05,193.85 357.14,197.52 C 357.21,198.4 356.92,199.12 356.26,199.66 C 355.55,199.8 354.96,199.61 354.48,199.09 C 353.31,195.51 351.48,192.32 348.99,189.51 C 346.05,186.79 342.6,185.69 338.64,186.22 C 335.09,187.36 333.16,189.78 332.87,193.5 C 332.54,196.14 333.44,198.27 335.56,199.87 C 336.72,200.82 337.95,201.64 339.27,202.34 C 342.43,203.92 345.68,205.29 349.02,206.45 C 351.66,207.65 354.07,209.22 356.23,211.14 C 358.01,212.97 359.2,215.14 359.81,217.63 C 360.92,223.76 359.39,229.12 355.21,233.71 C 351.51,236.95 347.22,238.94 342.34,239.7 C 334.73,240.52 327.26,239.82 319.95,237.58 C 318.91,237.44 318.06,236.97 317.41,236.18 C 317.15,231.79 317.01,227.4 317,223 Z M 115.29,210 C 115.26,214.18 115.55,218.34 116.17,222.48 C 116.75,225.59 117.77,228.55 119.24,231.35 C 121.71,235.84 125.3,237.18 130.01,235.37 C 132.51,233.71 134.16,231.41 134.95,228.48 C 137.6,217.19 137.5,205.92 134.66,194.68 C 133.75,191.58 132.03,189.03 129.51,187.04 C 125.96,185.07 122.76,185.53 119.9,188.41 C 118.17,190.92 116.99,193.68 116.34,196.67 C 115.75,201.1 115.4,205.54 115.29,210 Z M 280.19,202.94 C 280.55,203.98 281.31,204.42 282.47,204.25 C 286.82,204.09 291.17,204.02 295.52,204.04 C 296.13,204.09 296.63,203.89 297.03,203.43 C 297.53,198.4 296.76,193.56 294.72,188.92 C 292.58,185.62 289.83,184.99 286.48,187.03 C 284.28,189.08 282.74,191.56 281.86,194.45 C 281.15,197.25 280.59,200.08 280.19,202.94 Z M 221.41,210 C 221.31,218.47 221.55,226.92 222.1,235.36 C 222.28,235.53 222.46,235.69 222.64,235.86 C 229.58,237.19 234.68,234.71 237.95,228.41 C 239.42,225.25 240.45,221.95 241.03,218.51 C 241.97,212.21 241.82,205.94 240.58,199.7 C 239.59,194.79 236.86,191.29 232.36,189.2 C 229.16,188.52 225.97,188.58 222.8,189.37 C 221.88,189.88 221.44,190.66 221.48,191.71 C 221.43,197.8 221.4,203.9 221.41,210 Z"/></g>
<g><path fill="#040404" fill-opacity="0.961" d="M 289.56,176.13 C 290.56,171.28 291.79,166.49 293.26,161.76 C 293.6,161.37 294.02,161.16 294.54,161.15 C 295.43,161.05 296.3,161.13 297.16,161.39 C 297.55,161.68 297.79,162.08 297.87,162.56 C 298.68,166.61 299.72,170.6 300.99,174.52 C 301.47,176.54 300.72,177.3 298.75,176.79 C 298.23,175.91 297.77,175 297.37,174.05 C 296.38,173.82 295.38,173.6 294.37,173.37 C 293.93,173.41 293.53,173.55 293.17,173.81 C 292.81,174.71 292.43,175.61 292.02,176.5 C 291.08,177.22 290.26,177.1 289.56,176.13 Z M 313.64,174 C 313.68,170.49 313.69,166.98 313.67,163.47 C 313.47,162 314.08,161.2 315.51,161.08 C 317.87,160.83 320.11,161.23 322.21,162.3 C 323.96,163.92 324.38,165.85 323.48,168.08 C 322.55,168.88 321.92,169.86 321.6,171.01 C 322.13,172.4 322.79,173.72 323.59,174.98 C 324.23,176.2 323.87,176.89 322.53,177.07 C 321.93,177.07 321.44,176.84 321.04,176.4 C 320.12,174.94 319.34,173.41 318.69,171.82 C 317.68,170.73 317.04,170.93 316.76,172.43 C 316.76,173.44 316.76,174.45 316.76,175.46 C 316.63,176.77 315.9,177.28 314.58,176.98 C 313.76,176.17 313.44,175.18 313.64,174 Z M 331.64,166.99 C 332.2,163 334.49,161 338.51,161 C 341.2,161.33 342.9,162.79 343.6,165.4 C 343.05,166 342.35,166.22 341.52,166.06 C 340.58,165.39 339.73,164.62 338.96,163.75 C 337.18,163.31 335.93,163.92 335.2,165.59 C 334.96,167.56 334.9,169.53 335.01,171.51 C 335.43,174.41 336.98,175.29 339.67,174.14 C 340.2,173.33 340.84,172.63 341.58,172.03 C 343.84,171.81 344.35,172.67 343.09,174.62 C 341.47,176.93 339.26,177.76 336.47,177.13 C 334.22,176.81 332.75,175.57 332.05,173.41 C 331.75,171.28 331.61,169.14 331.64,166.99 Z M 344.77,176.07 C 345.97,171.34 347.19,166.6 348.42,161.87 C 349.57,161.06 350.82,160.89 352.18,161.36 C 352.6,161.64 352.87,162.03 352.98,162.52 C 354.12,166.5 355.17,170.5 356.13,174.52 C 356.61,176.63 355.83,177.37 353.78,176.74 C 353.29,175.85 352.86,174.93 352.49,173.96 C 351.16,173.45 349.82,173.43 348.47,173.91 C 347.99,174.55 347.66,175.28 347.48,176.07 C 346.55,177.21 345.65,177.21 344.77,176.07 Z M 316.8,166 C 316.61,167.32 317.16,168.08 318.45,168.29 C 320.9,167.81 321.49,166.48 320.21,164.28 C 319.03,163.53 317.95,163.63 316.97,164.57 C 316.81,165.03 316.75,165.51 316.8,166 Z M 293.8,170.06 C 294.08,170.83 294.64,171.19 295.47,171.15 C 296.04,171.11 296.41,170.83 296.6,170.32 C 296.14,168.62 295.78,166.91 295.51,165.21 C 295.12,165.32 294.83,165.56 294.64,165.93 C 294.3,167.29 294.02,168.67 293.8,170.06 Z M 349.11,169.96 C 349.24,170.74 349.7,171.15 350.51,171.2 C 351.15,171.24 351.61,170.98 351.89,170.41 C 351.58,168.62 351.09,166.9 350.41,165.23 C 349.76,166.73 349.33,168.31 349.11,169.96 Z"/></g>
<g><path fill="#030304" fill-opacity="0.949" d="M 303.05,164 C 302.87,162.97 303.09,162.05 303.73,161.27 C 305.98,161.07 308.24,161 310.5,161.06 C 311.86,161.22 312.28,161.95 311.78,163.26 C 311.61,163.41 311.44,163.56 311.27,163.71 C 310.02,163.83 308.75,163.9 307.49,163.92 C 306.94,163.97 306.55,164.25 306.33,164.74 C 306.07,165.83 306.2,166.84 306.73,167.79 C 307.86,168.04 309,168.25 310.14,168.41 C 310.89,169.14 310.89,169.86 310.15,170.57 C 309.27,170.78 308.39,170.89 307.49,170.93 C 306.94,170.97 306.55,171.23 306.32,171.72 C 306.26,173 306.24,174.28 306.24,175.55 C 305.95,177.04 305.1,177.48 303.69,176.88 C 303.53,176.69 303.37,176.5 303.22,176.32 C 303.07,172.22 303.01,168.11 303.05,164 Z M 326.15,171 C 326.12,167.93 326.19,164.87 326.37,161.81 C 326.91,161.22 327.59,161 328.4,161.14 C 328.99,161.36 329.32,161.79 329.4,162.42 C 329.46,166.81 329.47,171.2 329.42,175.58 C 329.03,177.05 328.14,177.46 326.74,176.8 C 326.6,176.62 326.46,176.44 326.32,176.26 C 326.19,174.51 326.14,172.76 326.15,171 Z"/></g>
</svg>
