<svg width="474" height="138" viewBox="0 0 474 138" fill="none" xmlns="http://www.w3.org/2000/svg">
<path fill-rule="evenodd" clip-rule="evenodd" d="M222.14 84.1328C222.85 84.2828 223.5 84.5728 224.08 85.0128C226.03 88.1428 226.36 91.4528 225.09 94.9228C223.49 98.9128 220.55 101.173 216.27 101.673C216.29 100.643 216.42 99.6528 216.66 98.6928C217.58 98.9228 218.44 98.8128 219.25 98.3628C220.89 96.7228 222.34 94.9528 223.61 93.0428C223.42 91.5428 223.34 90.0328 223.37 88.5028C223.19 88.2928 223.01 88.0828 222.83 87.8628C222.32 88.0628 221.86 88.3428 221.46 88.7128C221.18 88.4128 220.86 88.1528 220.52 87.9228C219.92 88.3428 219.29 88.7028 218.63 89.0028C217.91 88.6428 217.59 88.0528 217.67 87.2128C218.16 86.7028 218.48 86.1228 218.61 85.4628C219.08 85.5628 219.55 85.6628 220.01 85.7728C220.01 86.2728 220.26 86.5628 220.78 86.6328C222.05 86.2728 222.51 85.4428 222.14 84.1328Z" fill="#D32F3C" fill-opacity="0.957"/>
<path fill-rule="evenodd" clip-rule="evenodd" d="M265.699 87.4725C263.419 90.8225 260.839 93.9325 257.949 96.8125C256.049 98.2425 254.099 99.6025 252.099 100.893C251.349 101.193 250.579 101.313 249.779 101.243C249.619 98.8025 249.609 96.3525 249.729 93.9125C249.409 90.7025 248.529 87.6625 247.089 84.7825C246.829 83.9125 246.649 83.0225 246.569 82.1125C245.549 81.4025 244.889 80.4525 244.589 79.2425C245.109 79.4025 245.529 79.2625 245.839 78.8225C245.039 76.9225 244.219 75.0325 243.369 73.1525C243.219 72.5125 243.229 71.8825 243.409 71.2625C243.699 70.8525 244.089 70.6625 244.599 70.6825C246.179 70.6125 247.719 70.7725 249.209 71.1725C250.089 72.4525 250.929 73.7525 251.719 75.0825C252.309 75.8925 253.059 76.4925 253.969 76.9025C254.659 77.2125 255.309 77.1425 255.909 76.7025C256.589 75.2225 256.369 73.8725 255.239 72.6725C253.239 70.6325 251.109 68.7525 248.829 67.0225C248.989 66.0025 248.979 64.9925 248.789 63.9825C248.539 63.0625 247.939 62.5225 246.999 62.3825C246.739 60.9825 246.129 59.7625 245.169 58.7125C243.909 56.8525 242.469 55.1525 240.839 53.6025C241.379 52.8725 241.799 52.0925 242.099 51.2425C244.999 49.0925 247.889 46.8925 250.769 44.6525C251.489 43.6325 252.139 42.5725 252.699 41.4525C253.009 39.9625 252.439 39.3925 250.979 39.7225C249.439 40.5825 247.899 41.4325 246.349 42.2725C244.339 44.2825 242.189 46.1425 239.929 47.8525C239.469 48.2225 239.289 48.6825 239.379 49.2425C238.479 49.5625 237.589 49.9325 236.729 50.3525C235.439 49.0525 234.049 47.8825 232.529 46.8625C231.479 46.1825 230.369 45.6425 229.189 45.2225C226.159 43.8225 223.169 42.3225 220.219 40.7325C218.609 40.0325 216.929 39.5025 215.189 39.1525C215.029 38.5825 214.719 38.1225 214.279 37.7525C213.029 37.8825 211.789 37.8025 210.569 37.5225C210.069 36.9125 209.889 36.2225 210.039 35.4325C212.039 34.3625 214.019 33.2225 215.959 32.0325C218.239 31.1125 220.569 30.3325 222.939 29.6925C229.069 28.5625 235.199 28.5625 241.329 29.6825C250.099 32.0325 257.309 36.7725 262.949 43.9025C265.309 47.1325 267.179 50.6225 268.579 54.3725C269.289 56.9325 269.969 59.5025 270.619 62.0825C270.999 66.3725 270.879 70.6325 270.269 74.8825C269.029 79.1925 267.499 83.3825 265.699 87.4725ZM205.719 39.1225C206.639 39.0925 207.549 39.0825 208.469 39.0925C209.869 39.7525 211.339 40.2625 212.859 40.6225C214.979 41.0725 216.939 41.9425 218.719 43.2125C219.779 43.7625 220.679 44.5025 221.429 45.4325C222.639 47.1425 223.939 48.7725 225.339 50.3225C225.169 51.1525 225.239 51.9625 225.549 52.7525C227.249 54.3725 227.789 56.3125 227.189 58.5625C225.709 59.9625 224.339 61.4425 223.079 62.9925C221.899 63.4925 220.749 64.0525 219.629 64.6525C218.729 64.7425 217.829 64.7725 216.929 64.7425C216.189 63.3025 215.189 63.0525 213.939 63.9925C213.909 64.2525 213.879 64.5225 213.849 64.7825C214.529 65.5925 215.089 66.4725 215.539 67.4225C215.679 67.8825 215.689 68.3525 215.579 68.8125C213.629 70.7325 211.649 72.6425 209.649 74.5625C208.999 75.5825 209.279 76.1425 210.479 76.2425C211.009 76.1425 211.519 75.9725 211.989 75.7125C213.659 74.4625 215.319 73.2225 216.989 72.0025C218.069 73.2525 219.049 74.5825 219.909 75.9925C220.069 77.2125 220.289 78.4125 220.569 79.5925C220.069 79.5825 219.619 79.7325 219.219 80.0425C217.529 81.6125 216.809 83.5725 217.059 85.9125C217.069 86.4425 217.269 86.8825 217.669 87.2125C217.589 88.0525 217.909 88.6425 218.629 89.0025C219.289 88.7025 219.919 88.3425 220.519 87.9225C220.859 88.1525 221.179 88.4125 221.459 88.7125C221.859 88.3425 222.319 88.0625 222.829 87.8625C223.009 88.0825 223.189 88.2925 223.369 88.5025C223.339 90.0325 223.419 91.5425 223.609 93.0425C222.339 94.9525 220.889 96.7225 219.249 98.3625C218.439 98.8125 217.579 98.9225 216.659 98.6925C216.419 99.6525 216.289 100.643 216.269 101.673C215.539 101.683 214.809 101.692 214.069 101.702C211.969 100.632 209.999 99.3625 208.149 97.9025C204.659 95.3825 201.819 92.2725 199.619 88.5825C197.769 85.8225 196.319 82.8725 195.279 79.7225C194.479 76.4225 193.829 73.0825 193.339 69.7125C193.149 68.1625 193.139 66.6125 193.299 65.0625C193.669 61.6625 194.339 58.3325 195.309 55.0625C196.799 50.8425 198.899 46.9625 201.609 43.4025C202.869 41.8725 204.239 40.4425 205.719 39.1225ZM220.009 85.7725C220.459 85.8825 220.719 86.1725 220.779 86.6325C220.259 86.5625 220.009 86.2725 220.009 85.7725Z" fill="#EA2E35" fill-opacity="0.996" stroke="#EA2E35" stroke-opacity="0.996" stroke-width="0.5"/>
<path fill-rule="evenodd" clip-rule="evenodd" d="M229.191 45.2227C230.371 45.6427 231.481 46.1827 232.531 46.8627C230.941 47.6727 230.701 48.7627 231.821 50.1527C235.131 52.8227 238.311 55.6327 241.361 58.5927C242.231 59.7127 243.211 60.7127 244.311 61.6027C244.781 62.1227 245.101 62.7227 245.271 63.4027C245.051 63.7927 244.831 64.1827 244.611 64.5727C242.871 62.5627 241.051 60.6227 239.141 58.7527C235.541 55.6727 231.991 52.5627 228.471 49.4227C227.671 48.7927 227.161 47.9927 226.941 47.0127C227.431 46.7327 227.931 46.7527 228.451 47.0727C229.101 46.6227 229.341 46.0027 229.191 45.2227Z" fill="#B34B53" fill-opacity="0.302"/>
<path fill-rule="evenodd" clip-rule="evenodd" d="M273.71 41.1322C277.3 41.2022 280.9 41.2822 284.5 41.3622C288.85 41.2522 293.18 40.9122 297.5 40.3322C300.5 40.3122 303.5 40.2822 306.5 40.2422C315.19 40.7022 322.74 43.8722 329.13 49.7622C334.04 54.8122 336.44 60.8522 336.31 67.8922C336.41 75.5122 333.35 81.5222 327.14 85.9422C325.04 87.3422 322.78 88.4422 320.38 89.2322C315.52 90.6722 310.56 91.4422 305.5 91.5322C295.45 91.2022 285.4 91.1622 275.34 91.4322C274.81 91.4622 274.36 91.3122 273.99 90.9522C275.56 90.5722 277.13 90.1422 278.7 89.6622C280.09 89.0822 281.07 88.0922 281.65 86.7122C283.82 72.9222 283.8 59.1322 281.59 45.3422C279.9 42.8522 277.53 41.7622 274.5 42.0722C274.04 41.9222 273.78 41.6022 273.71 41.1322ZM27 41.3822C28.83 40.9622 30.66 40.9722 32.5 41.4122C43.84 41.4822 55.18 41.3522 66.5 41.0222C68.04 40.8422 69.35 41.2822 70.45 42.3322C70.96 46.2222 71.41 50.1322 71.79 54.0422C71.78 55.5122 71.27 55.7322 70.26 54.7022C67.79 46.3222 62.2 42.5922 53.49 43.5322C52.3 43.4422 51.54 43.9522 51.19 45.0722C50.96 46.0022 50.85 46.9322 50.86 47.8822C50.83 59.8922 50.89 71.8922 51.05 83.9022C51.02 86.2722 52.02 88.0622 54.04 89.2622C53.8 89.9922 53.29 90.3922 52.52 90.4622C49.17 90.3522 45.81 90.3422 42.46 90.4322C41.55 90.4322 41.03 89.9822 40.9 89.0922C42.57 87.6122 43.4 85.7322 43.39 83.4622C43.59 70.7122 43.54 57.9622 43.25 45.2322C42.73 44.0622 41.82 43.4722 40.5 43.4622C35.22 43.0422 30.72 44.6922 27 48.4122C27 46.0722 27 43.7222 27 41.3822ZM289.31 62.3922C289.33 69.5422 289.34 76.7022 289.34 83.8522C290.03 86.0122 291.48 87.3822 293.71 87.9522C295.9 88.8222 298.16 89.2822 300.5 89.3622C304.89 89.7322 309.21 89.3322 313.45 88.1422C320.94 85.7122 325.43 80.6322 326.9 72.8922C327.8 68.0222 327.61 63.2022 326.33 58.4422C323 50.1722 316.99 44.9622 308.31 42.8122C303.76 42.0222 299.22 41.9922 294.66 42.7122C293.4 42.9922 292.21 43.4422 291.08 44.0622C290.21 44.9822 289.74 46.0822 289.65 47.3722C289.51 52.3722 289.4 57.3822 289.31 62.3922ZM129.25 90.6822C131.61 90.7422 133.61 89.9522 135.26 88.3022C135.75 87.5822 136.08 86.7922 136.24 85.9322C136.47 84.2622 136.6 82.5822 136.64 80.9022C136.62 73.5622 136.62 66.2322 136.64 58.8922C136.59 57.2122 136.43 55.5322 136.15 53.8722C135.82 52.6222 135.16 51.5822 134.17 50.7522C132.73 50.3022 131.26 50.0322 129.74 49.9722C129.25 49.3622 129.24 48.7222 129.69 48.0622C131.61 48.3322 133.55 48.5922 135.5 48.8322C137.83 48.8222 140.17 48.8222 142.5 48.8522C144.92 48.8622 147.28 48.5222 149.59 47.8122C149.83 48.3222 149.8 48.8222 149.48 49.3022C147.13 49.5722 145.19 50.5922 143.67 52.3822C143.36 52.8422 143.15 53.3422 143.06 53.8922C142.7 64.5622 142.69 75.2222 143.03 85.8922C143.34 88.1422 144.6 89.5722 146.79 90.1822C147.98 90.5022 149.19 90.7022 150.41 90.7722C150.44 90.8622 150.47 90.9422 150.5 91.0322C149.99 91.5722 149.36 91.8222 148.61 91.7822C144.93 91.2522 141.23 91.0722 137.5 91.2522C135.16 91.1522 132.85 91.3522 130.58 91.8522C129.76 91.8722 129.32 91.4822 129.25 90.6822ZM152.26 76.6322C152.86 76.5622 153.34 76.7422 153.73 77.1822C156.33 82.2122 160.08 86.1322 164.97 88.9522C169.6 90.9722 174.18 90.8922 178.71 88.7122C182.41 85.8122 183.02 82.3622 180.54 78.3722C179.17 76.6722 177.5 75.3622 175.54 74.4322C171.38 72.5222 167.19 70.7122 162.96 68.9822C159.36 67.6422 156.69 65.2822 154.95 61.9022C153.87 58.9722 154.15 56.1522 155.78 53.4522C158.41 49.8122 161.98 47.8322 166.49 47.5022C169.52 47.5222 172.51 47.8322 175.49 48.4422C178.2 49.0522 180.91 49.6322 183.64 50.1822C185.17 50.4122 186.08 51.2722 186.35 52.7522C186.1 54.8222 185.74 56.8722 185.27 58.9022C185.28 59.4422 185.31 59.9822 185.38 60.5222C185.31 60.9022 185.09 61.0922 184.7 61.0922C184.17 59.4722 183.48 57.8822 182.63 56.3322C179.23 52.1122 174.81 49.8722 169.38 49.6022C167.4 49.5422 165.47 49.8122 163.58 50.4022C159.86 52.1522 158.78 54.9222 160.35 58.7322C161.69 60.7222 163.46 62.2022 165.67 63.1722C170.41 65.0022 175.08 67.0022 179.66 69.1722C185.38 72.0322 187.85 76.6122 187.05 82.9122C185.61 87.8422 182.36 90.8422 177.28 91.9122C175.52 92.3422 173.73 92.5822 171.91 92.6222C166.72 92.0422 161.55 91.2522 156.42 90.2622C155.64 89.6622 155.16 88.8722 154.98 87.8822C154.24 84.0922 153.33 80.3422 152.26 76.6322ZM73.81 91.5622C73.82 91.0522 74.08 90.7422 74.58 90.6222C78.07 90.2822 79.93 88.3722 80.17 84.8922C80.29 74.8922 80.28 64.8922 80.11 54.8922C79.95 52.6622 78.88 51.0622 76.91 50.1022C76.33 49.6822 76.24 49.1922 76.65 48.6522C79.04 48.8122 81.44 48.8922 83.85 48.8922C84.42 48.7922 84.98 48.6622 85.54 48.4922C86.16 49.2722 86.87 49.3522 87.68 48.7322C88.46 48.6422 89.2 48.7722 89.89 49.1122C89.9 49.3222 89.92 49.5222 89.94 49.7322C89.46 50.3122 88.88 50.7722 88.21 51.1222C86.9 53.1822 86.37 55.4422 86.61 57.8922C86.52 60.4922 86.62 63.0722 86.92 65.6422C87.54 66.5222 88.4 66.9722 89.5 66.9822C96.18 66.9122 102.85 66.9122 109.52 66.9622C111.87 67.2322 113.06 66.2122 113.07 63.8922C113.12 60.8922 113.08 57.8922 112.94 54.8922C112.84 52.6422 111.77 51.0822 109.71 50.2022C108.91 49.2622 109.12 48.7622 110.34 48.7222C114.34 48.8622 118.33 48.8822 122.32 48.7622C122.75 48.9322 122.87 49.2322 122.68 49.6522C121.84 50.3922 121.09 51.2022 120.42 52.0722C119.88 53.0122 119.57 54.0222 119.48 55.1022C119.26 65.0122 119.24 74.9322 119.41 84.8422C119.5 87.2322 120.58 89.0022 122.67 90.1522C123.82 90.3122 124.93 90.5822 126 90.9822C125.6 91.3122 125.14 91.4422 124.6 91.3822C118.87 91.2122 113.14 91.2022 107.41 91.3522C106.91 91.3922 106.45 91.2722 106.05 90.9822C107.61 90.7622 109.1 90.2622 110.51 89.5122C111.56 88.8422 112.29 87.9122 112.69 86.7322C113.19 81.2122 113.2 75.6822 112.72 70.1622C111.75 69.5522 110.67 69.2622 109.5 69.2822C103.16 69.2822 96.83 69.2622 90.5 69.2422C89.54 69.1922 88.6 69.3022 87.69 69.5822C87.23 69.9322 86.97 70.4022 86.9 70.9822C86.55 75.9522 86.53 80.9222 86.83 85.9022C87.14 88.1422 88.38 89.6022 90.56 90.2722C91.46 90.2722 92.28 90.5022 93.01 90.9722C92.62 91.3522 92.14 91.5022 91.58 91.4022C85.65 91.1322 79.73 91.1922 73.81 91.5622ZM331.13 90.5222C334.1 90.0022 336.34 88.4222 337.83 85.7822C341.83 77.1122 345.78 68.4222 349.67 59.7122C351.07 56.6322 352.31 53.4822 353.38 50.2722C354.21 49.2922 355.23 48.6122 356.45 48.2422C357.05 48.2722 357.54 48.5122 357.93 48.9822C358.61 49.6822 359.2 50.4622 359.68 51.3122C364.18 62.7922 368.73 74.2522 373.33 85.6922C373.94 86.9622 374.79 88.0422 375.88 88.9322C377.25 89.7022 378.64 90.3822 380.03 90.9422C379.66 91.3822 379.18 91.5522 378.58 91.4422C372.85 91.2022 367.11 91.1922 361.38 91.4322C360.85 91.5122 360.41 91.3722 360.06 91.0022C361.03 90.5222 362.07 90.2422 363.18 90.1722C365.41 89.3522 366.42 87.7822 366.22 85.4422C364.93 81.5822 363.48 77.7722 361.85 74.0422C361 72.9622 359.89 72.4222 358.51 72.4222C355.17 72.4122 351.83 72.4122 348.49 72.4122C347.18 72.5822 346.17 73.2422 345.46 74.3822C344.1 77.7022 342.79 81.0422 341.53 84.4022C341.02 86.2122 341.46 87.7322 342.84 88.9722C343.99 89.7022 345.25 90.1722 346.61 90.3822C346.74 90.5622 346.86 90.7322 346.99 90.9122C346.62 91.3322 346.15 91.5022 345.57 91.4122C341.21 91.2022 336.84 91.1922 332.48 91.3822C331.83 91.3822 331.38 91.1022 331.13 90.5222ZM402.13 89.0122C402.13 89.5422 401.89 89.9322 401.42 90.1922C398.45 90.3722 395.47 90.4322 392.48 90.3822C391.75 90.3422 391.24 89.9922 390.95 89.3422C392.69 88.3922 393.62 86.9022 393.76 84.8722C393.79 81.5422 393.79 78.2222 393.78 74.8922C393.75 73.8122 393.52 72.7822 393.09 71.7922C388.02 65.5622 382.81 59.4322 377.46 53.4222C375.54 51.6622 373.33 50.4622 370.81 49.8322C370.4 49.7322 370.16 49.4922 370.09 49.0922C370.5 48.7622 370.96 48.6122 371.5 48.6322C376.75 48.8122 382.02 48.9022 387.29 48.9022C388.37 48.7722 389.45 48.6322 390.54 48.4922C391.12 48.4122 391.6 48.5922 391.98 49.0322C391.91 49.2122 391.84 49.3822 391.76 49.5622C390.91 49.7922 390.06 49.9922 389.2 50.1622C386.96 51.0422 386.27 52.6322 387.12 54.9222C387.46 55.8122 387.92 56.6322 388.49 57.3922C391.05 60.5122 393.58 63.6522 396.07 66.8222C396.92 67.5622 397.72 68.3522 398.46 69.2122C398.71 69.5122 399.04 69.6322 399.43 69.5722C401.17 68.2422 402.63 66.6322 403.8 64.7622C405.43 62.3322 407.06 59.8922 408.69 57.4622C409.7 55.6222 409.83 53.7122 409.1 51.7422C407.91 50.5022 406.52 49.5822 404.95 48.9822C405.3 48.4622 405.8 48.2422 406.45 48.3222C407.2 48.5322 407.95 48.7022 408.71 48.8522C413.01 48.9322 417.29 48.8422 421.56 48.5722C422.13 48.5022 422.6 48.6722 423 49.0522C422.92 49.2222 422.85 49.3922 422.78 49.5622C419.48 50.2322 416.7 51.8222 414.43 54.3222C409.75 60.0422 405.25 65.9022 400.93 71.8922C400.44 72.8322 400.13 73.8222 400.01 74.8722C399.98 78.2122 400.01 81.5522 400.11 84.8922C400.16 86.5822 400.83 87.9522 402.13 89.0122ZM347.3 70.0722C350.01 70.4422 352.74 70.5522 355.5 70.4222C356.74 70.2922 357.98 70.1922 359.23 70.1222C359.36 69.9722 359.48 69.8222 359.61 69.6722C359.2 68.1622 358.84 66.6522 358.54 65.1222C357.29 61.5622 355.83 58.1122 354.18 54.7522C353.8 54.5422 353.5 54.6222 353.28 54.9922C351.28 60.0122 349.28 65.0422 347.3 70.0722Z" fill="#030303" fill-opacity="0.976" stroke="#030303" stroke-opacity="0.976" stroke-width="0.5"/>
<path fill-rule="evenodd" clip-rule="evenodd" d="M226.988 79.4028C227.068 79.0328 227.288 78.7728 227.658 78.6328C229.248 78.6428 230.848 78.6328 232.458 78.6328C233.388 78.5328 233.928 78.9128 234.048 79.7928C233.418 80.2428 232.758 80.6528 232.058 81.0228C231.668 81.6528 231.188 82.2128 230.628 82.7028C229.988 82.5928 229.378 82.3728 228.808 82.0428C228.278 81.1228 227.668 80.2428 226.988 79.4028Z" fill="#B5364E" fill-opacity="0.796"/>
<path fill-rule="evenodd" clip-rule="evenodd" d="M223.08 62.9922C223.6 63.2922 224.12 63.6022 224.63 63.9222C223.97 64.4622 223.48 65.1222 223.16 65.9022C223.3 66.2922 223.58 66.4322 223.98 66.3022C223.4 67.1022 222.61 67.5922 221.6 67.7922C221.29 68.2522 221.13 68.7822 221.11 69.3622C220.93 69.3222 220.74 69.2722 220.56 69.2222C219.69 67.4622 218.48 65.9722 216.93 64.7422C217.83 64.7722 218.73 64.7422 219.63 64.6522C220.75 64.0522 221.9 63.4922 223.08 62.9922Z" fill="#CF4955" fill-opacity="0.682"/>
<path fill-rule="evenodd" clip-rule="evenodd" d="M210.039 35.4316C209.889 36.2216 210.069 36.9116 210.569 37.5216C211.789 37.8016 213.029 37.8816 214.279 37.7516C214.719 38.1216 215.029 38.5816 215.189 39.1516C213.909 38.8816 213.129 39.3716 212.859 40.6216C211.339 40.2616 209.869 39.7516 208.469 39.0916C207.549 39.0816 206.639 39.0916 205.719 39.1216C207.089 37.8016 208.529 36.5716 210.039 35.4316Z" fill="#DA4B54" fill-opacity="0.843"/>
<path fill-rule="evenodd" clip-rule="evenodd" d="M246.999 62.3828C247.939 62.5228 248.539 63.0628 248.789 63.9828C248.979 64.9928 248.989 66.0028 248.829 67.0228C248.459 67.1528 248.079 67.2828 247.709 67.4128C246.959 67.0928 246.229 66.7628 245.499 66.3928C245.059 65.8628 244.769 65.2528 244.609 64.5728C244.829 64.1828 245.049 63.7928 245.269 63.4028C246.289 63.7128 246.859 63.3728 246.999 62.3828Z" fill="#B73842" fill-opacity="0.545"/>
<path fill-rule="evenodd" clip-rule="evenodd" d="M225.34 50.3223C226.9 52.4123 228.19 54.6523 229.2 57.0423C228.76 57.8423 228.09 58.3523 227.19 58.5623C227.79 56.3123 227.25 54.3723 225.55 52.7523C225.24 51.9623 225.17 51.1523 225.34 50.3223Z" fill="#C53542" fill-opacity="0.69"/>
<path fill-rule="evenodd" clip-rule="evenodd" d="M229.198 57.043C229.818 57.653 230.368 58.333 230.858 59.053C231.708 59.203 232.558 59.343 233.418 59.473C233.298 60.433 233.288 61.433 233.388 62.463C233.168 62.413 232.948 62.353 232.718 62.293C232.248 61.773 231.798 61.233 231.378 60.673C231.178 60.693 230.978 60.703 230.778 60.723C229.318 62.233 227.768 63.663 226.128 65.023C225.468 65.553 224.758 65.973 223.978 66.303C223.578 66.433 223.298 66.293 223.158 65.903C223.478 65.123 223.968 64.463 224.628 63.923C224.118 63.603 223.598 63.293 223.078 62.993C224.338 61.443 225.708 59.963 227.188 58.563C228.088 58.353 228.758 57.843 229.198 57.043Z" fill="#CB4A51" fill-opacity="0.506"/>
<path fill-rule="evenodd" clip-rule="evenodd" d="M215.189 39.152C216.929 39.502 218.609 40.032 220.219 40.732C219.389 41.352 218.889 42.182 218.719 43.212C216.939 41.942 214.979 41.072 212.859 40.622C213.129 39.372 213.909 38.882 215.189 39.152Z" fill="#C63638" fill-opacity="0.267" stroke="#C63638" stroke-opacity="0.267" stroke-width="0.5"/>
<path fill-rule="evenodd" clip-rule="evenodd" d="M239.08 67.0929C237.5 67.0329 236.25 66.3829 235.34 65.1229C236.42 65.4829 237.43 65.3429 238.38 64.7129C238.48 65.5529 238.71 66.3429 239.08 67.0929Z" fill="#D44755" fill-opacity="0.42"/>
<path fill-rule="evenodd" clip-rule="evenodd" d="M233.388 62.4619C233.458 63.7419 234.108 64.6319 235.338 65.1219C236.248 66.3819 237.498 67.0319 239.078 67.0919C239.848 68.1519 240.898 68.8019 242.218 69.0319C243.808 69.4319 245.418 69.6219 247.058 69.6019C248.228 69.4919 248.948 70.0119 249.208 71.1719C247.718 70.7719 246.178 70.6119 244.598 70.6819C244.088 70.6619 243.698 70.8519 243.408 71.2619C243.228 71.8819 243.218 72.5119 243.368 73.1519C244.218 75.0319 245.038 76.9219 245.838 78.8219C245.528 79.2619 245.108 79.4019 244.588 79.2419C243.718 77.7619 242.938 76.2319 242.268 74.6319C241.598 73.7119 240.698 73.1719 239.578 73.0119C236.878 73.0819 234.188 73.1219 231.498 73.1319C230.008 73.2919 228.568 73.6119 227.168 74.1019C226.608 74.8019 225.928 75.3319 225.108 75.7019C224.508 75.7319 224.228 76.0519 224.248 76.6319C223.648 76.7219 223.328 77.0719 223.288 77.6819C222.558 78.5619 221.648 79.2019 220.568 79.5919C220.288 78.4119 220.068 77.2119 219.908 75.9919C219.048 74.5819 218.068 73.2519 216.988 72.0019C217.388 71.6619 217.848 71.5319 218.368 71.6019C219.288 72.0319 220.138 72.5919 220.898 73.2919C222.178 73.8019 222.848 73.3519 222.908 71.9519C222.448 71.1819 221.858 70.5119 221.138 69.9519C221.128 69.7519 221.118 69.5619 221.108 69.3619C221.128 68.7819 221.288 68.2519 221.598 67.7919C222.608 67.5919 223.398 67.1019 223.978 66.3019C224.758 65.9719 225.468 65.5519 226.128 65.0219C227.768 63.6619 229.318 62.2319 230.778 60.7219C230.978 60.7019 231.178 60.6919 231.378 60.6719C231.798 61.2319 232.248 61.7719 232.718 62.2919C232.948 62.3519 233.168 62.4119 233.388 62.4619Z" fill="#DD2D37" fill-opacity="0.969" stroke="#DD2D37" stroke-opacity="0.969" stroke-width="0.5"/>
<path fill-rule="evenodd" clip-rule="evenodd" d="M247.709 67.4134C248.079 67.2834 248.459 67.1534 248.829 67.0234C251.109 68.7534 253.239 70.6334 255.239 72.6734C256.369 73.8734 256.589 75.2234 255.909 76.7034C255.309 77.1434 254.659 77.2134 253.969 76.9034C253.059 76.4934 252.309 75.8934 251.719 75.0834C250.929 73.7534 250.089 72.4534 249.209 71.1734C248.949 70.0134 248.229 69.4934 247.059 69.6034C247.269 68.8634 247.489 68.1334 247.709 67.4134Z" fill="#C93A44" fill-opacity="0.188" stroke="#C93A44" stroke-opacity="0.188" stroke-width="0.5"/>
<path fill-rule="evenodd" clip-rule="evenodd" d="M239.38 49.2422C239.52 50.8922 240.43 51.5622 242.1 51.2422C241.8 52.0922 241.38 52.8722 240.84 53.6022C239.5 52.4722 238.13 51.3922 236.73 50.3522C237.59 49.9322 238.48 49.5622 239.38 49.2422Z" fill="#C64E57" fill-opacity="0.537"/>
<path fill-rule="evenodd" clip-rule="evenodd" d="M222.139 84.1328C222.509 85.4428 222.049 86.2728 220.779 86.6328C220.719 86.1728 220.459 85.8828 220.009 85.7728C219.549 85.6628 219.079 85.5628 218.609 85.4628C219.629 84.6228 220.799 84.1828 222.139 84.1328Z" fill="#D85156" fill-opacity="0.525"/>
<path fill-rule="evenodd" clip-rule="evenodd" d="M225.109 75.7031C224.859 76.0531 224.569 76.3631 224.249 76.6331C224.229 76.0531 224.509 75.7331 225.109 75.7031ZM224.249 76.6331C223.979 77.0331 223.659 77.3731 223.289 77.6831C223.329 77.0731 223.649 76.7231 224.249 76.6331Z" fill="#CC3F4E" fill-opacity="0.663"/>
<path fill-rule="evenodd" clip-rule="evenodd" d="M244.59 79.2417C244.89 80.4517 245.55 81.4017 246.57 82.1117C246.65 83.0217 246.83 83.9117 247.09 84.7817C248.53 87.6617 249.41 90.7017 249.73 93.9117C249.61 96.3517 249.62 98.8017 249.78 101.242C249.33 101.912 248.77 102.462 248.09 102.892C241.34 105.852 234.3 106.882 226.98 105.962C223.36 105.352 219.82 104.452 216.36 103.252C215.54 102.942 214.75 102.582 213.98 102.172C214.01 102.012 214.04 101.852 214.07 101.702C214.81 101.692 215.54 101.682 216.27 101.672C220.55 101.172 223.49 98.9117 225.09 94.9217C226.36 91.4517 226.03 88.1417 224.08 85.0117C223.5 84.5717 222.85 84.2817 222.14 84.1317C220.8 84.1817 219.63 84.6217 218.61 85.4617C218.48 86.1217 218.16 86.7017 217.67 87.2117C217.27 86.8817 217.07 86.4417 217.06 85.9117C216.81 83.5717 217.53 81.6117 219.22 80.0417C219.62 79.7317 220.07 79.5817 220.57 79.5917C221.65 79.2017 222.56 78.5617 223.29 77.6817C223.66 77.3717 223.98 77.0317 224.25 76.6317C224.57 76.3617 224.86 76.0517 225.11 75.7017C225.93 75.3317 226.61 74.8017 227.17 74.1017C228.57 73.6117 230.01 73.2917 231.5 73.1317C234.19 73.1217 236.88 73.0817 239.58 73.0117C240.7 73.1717 241.6 73.7117 242.27 74.6317C242.94 76.2317 243.72 77.7617 244.59 79.2417ZM226.99 79.4017C227.67 80.2417 228.28 81.1217 228.81 82.0417C229.38 82.3717 229.99 82.5917 230.63 82.7017C231.19 82.2117 231.67 81.6517 232.06 81.0217C232.76 80.6517 233.42 80.2417 234.05 79.7917C233.93 78.9117 233.39 78.5317 232.46 78.6317C230.85 78.6317 229.25 78.6417 227.66 78.6317C227.29 78.7717 227.07 79.0317 226.99 79.4017Z" fill="#160708" fill-opacity="0.012" stroke="#160708" stroke-opacity="0.012" stroke-width="0.5"/>
<path fill-rule="evenodd" clip-rule="evenodd" d="M266.45 88.5519C266.2 88.1919 265.95 87.8319 265.7 87.4719C267.5 83.3819 269.03 79.1919 270.27 74.8819C270.88 70.6319 271 66.3719 270.62 62.0819C269.97 59.5019 269.29 56.9319 268.58 54.3719C267.18 50.6219 265.31 47.1319 262.95 43.9019C257.31 36.7719 250.1 32.0319 241.33 29.6819C235.2 28.5619 229.07 28.5619 222.94 29.6919C220.57 30.3319 218.24 31.1119 215.96 32.0319C214.02 33.2219 212.04 34.3619 210.04 35.4319C208.53 36.5719 207.09 37.8019 205.72 39.1219C204.24 40.4419 202.87 41.8719 201.61 43.4019C198.9 46.9619 196.8 50.8419 195.31 55.0619C194.34 58.3319 193.67 61.6619 193.3 65.0619C193.14 66.6119 193.15 68.1619 193.34 69.7119C193.83 73.0819 194.48 76.4219 195.28 79.7219C196.32 82.8719 197.77 85.8219 199.62 88.5819C199.24 88.9119 198.86 89.2419 198.47 89.5719C194.57 83.5819 192.37 77.0219 191.87 69.8919C191.4 56.1219 196.42 44.7519 206.92 35.8019C212.45 31.5519 218.64 28.7719 225.49 27.4519C234.47 26.1719 242.99 27.6119 251.05 31.7619C263.2 38.6719 270.25 49.0519 272.2 62.8919C272.25 64.8919 272.31 66.8919 272.36 68.8919C272.01 70.5419 271.86 72.2019 271.93 73.8819C271.1 79.1519 269.27 84.0419 266.45 88.5519Z" fill="#420808" fill-opacity="0.906"/>
<path fill-rule="evenodd" clip-rule="evenodd" d="M265.7 87.4727C265.95 87.8327 266.2 88.1927 266.45 88.5527C266.14 89.1127 265.89 89.6926 265.68 90.2926C265.46 91.4526 265.81 92.3927 266.73 93.0827C267.3 93.1327 267.85 93.2527 268.39 93.4227C268.66 93.7727 268.64 94.1027 268.33 94.4227C265.52 98.2227 262.19 101.493 258.35 104.223C257.86 105.113 257.29 105.953 256.66 106.733C254.87 107.833 253.03 108.823 251.13 109.713C250.23 109.553 249.32 109.513 248.4 109.603C247.67 109.373 247.01 109.023 246.4 108.553C245.57 109.243 244.76 109.263 243.95 108.593C244.04 108.173 244.29 107.863 244.69 107.693C245.83 107.703 246.84 107.353 247.71 106.643C248.02 107.153 248.36 107.663 248.72 108.163C248.95 108.203 249.17 108.253 249.39 108.293C250.39 107.843 251.43 107.553 252.52 107.433C252.71 107.253 252.89 107.083 253.08 106.913C253.01 105.953 253.04 105.003 253.16 104.063C253.53 103.673 253.99 103.493 254.53 103.513C255.37 103.563 256.17 103.653 256.93 103.773C257.01 102.093 256.22 101.263 254.56 101.273C252.08 102.353 249.7 103.623 247.42 105.093C245.55 105.753 243.64 106.253 241.69 106.603C241.33 106.763 241.14 107.033 241.11 107.413C239.87 107.203 238.61 107.153 237.35 107.273C236.19 107.303 235.16 107.643 234.26 108.303C233.31 108.373 232.35 108.373 231.4 108.303C228.86 107.623 226.27 107.223 223.64 107.093C220.55 106.393 217.57 105.383 214.68 104.063C214.58 103.523 214.8 103.223 215.35 103.143C215.69 103.183 216.02 103.213 216.36 103.253C219.82 104.453 223.36 105.353 226.98 105.963C234.3 106.883 241.34 105.853 248.09 102.893C248.77 102.463 249.33 101.913 249.78 101.243C250.58 101.313 251.35 101.193 252.1 100.893C254.1 99.6027 256.05 98.2427 257.95 96.8127C260.84 93.9327 263.42 90.8227 265.7 87.4727Z" fill="#0C0608" fill-opacity="0.976"/>
<path fill-rule="evenodd" clip-rule="evenodd" d="M220.219 40.7324C223.169 42.3224 226.159 43.8224 229.189 45.2224C229.339 46.0024 229.099 46.6224 228.449 47.0724C227.929 46.7524 227.429 46.7324 226.939 47.0124C227.159 47.9924 227.669 48.7924 228.469 49.4224C231.989 52.5624 235.539 55.6724 239.139 58.7524C241.049 60.6224 242.869 62.5624 244.609 64.5724C244.769 65.2524 245.059 65.8624 245.499 66.3924C246.229 66.7624 246.959 67.0924 247.709 67.4124C247.489 68.1324 247.269 68.8624 247.059 69.6024C245.419 69.6224 243.809 69.4324 242.219 69.0324C240.899 68.8024 239.849 68.1524 239.079 67.0924C238.709 66.3424 238.479 65.5524 238.379 64.7124C237.429 65.3424 236.419 65.4824 235.339 65.1224C234.109 64.6324 233.459 63.7424 233.389 62.4624C233.289 61.4324 233.299 60.4324 233.419 59.4724C232.559 59.3424 231.709 59.2024 230.859 59.0524C230.369 58.3324 229.819 57.6524 229.199 57.0424C228.189 54.6524 226.899 52.4124 225.339 50.3224C223.939 48.7724 222.639 47.1424 221.429 45.4324C220.679 44.5024 219.779 43.7624 218.719 43.2124C218.889 42.1824 219.389 41.3524 220.219 40.7324Z" fill="#361215" fill-opacity="0.02" stroke="#361215" stroke-opacity="0.02" stroke-width="0.5"/>
<path fill-rule="evenodd" clip-rule="evenodd" d="M199.62 88.582C201.82 92.272 204.66 95.382 208.15 97.902C208.62 99.312 208.99 100.752 209.28 102.212C209.43 102.172 209.58 102.142 209.73 102.112C210.13 103.142 210.68 104.082 211.38 104.942C211.49 105.542 211.48 106.132 211.33 106.732C211.92 107.112 212.47 107.532 212.98 108.012C213.1 108.572 213.07 109.132 212.9 109.672C211.15 108.892 209.49 107.972 207.9 106.922C207.27 106.202 206.72 105.422 206.25 104.582C202.64 101.942 199.41 98.882 196.57 95.412C196.19 94.982 195.99 94.482 195.98 93.912C196.87 93.462 197.65 92.862 198.33 92.112C198.61 91.282 198.66 90.432 198.47 89.572C198.86 89.242 199.24 88.912 199.62 88.582Z" fill="#0C0505" fill-opacity="0.98" stroke="#0C0505" stroke-opacity="0.98" stroke-width="0.5"/>
<path fill-rule="evenodd" clip-rule="evenodd" d="M242.102 51.2434C240.432 51.5634 239.522 50.8934 239.382 49.2434C239.292 48.6834 239.472 48.2234 239.932 47.8534C242.192 46.1434 244.342 44.2834 246.352 42.2734C247.902 41.4334 249.442 40.5834 250.982 39.7234C252.442 39.3934 253.012 39.9634 252.702 41.4534C252.142 42.5734 251.492 43.6334 250.772 44.6534C247.892 46.8934 245.002 49.0934 242.102 51.2434Z" fill="#89272C" fill-opacity="0.071" stroke="#89272C" stroke-opacity="0.071" stroke-width="0.5"/>
<path fill-rule="evenodd" clip-rule="evenodd" d="M232.531 46.8633C234.051 47.8833 235.441 49.0533 236.731 50.3533C238.131 51.3933 239.501 52.4733 240.841 53.6033C242.471 55.1533 243.911 56.8533 245.171 58.7133C246.131 59.7633 246.741 60.9833 247.001 62.3833C246.861 63.3733 246.291 63.7133 245.271 63.4033C245.101 62.7233 244.781 62.1233 244.311 61.6033C243.211 60.7133 242.231 59.7133 241.361 58.5933C238.311 55.6333 235.131 52.8233 231.821 50.1533C230.701 48.7633 230.941 47.6733 232.531 46.8633Z" fill="#5F2528" fill-opacity="0.035" stroke="#5F2528" stroke-opacity="0.035" stroke-width="0.5"/>
<path fill-rule="evenodd" clip-rule="evenodd" d="M216.93 64.7424C218.48 65.9724 219.69 67.4624 220.56 69.2224C220.74 69.2724 220.93 69.3224 221.11 69.3624C221.12 69.5624 221.13 69.7524 221.14 69.9524C221.86 70.5124 222.45 71.1824 222.91 71.9524C222.85 73.3524 222.18 73.8024 220.9 73.2924C220.14 72.5924 219.29 72.0324 218.37 71.6024C217.85 71.5324 217.39 71.6624 216.99 72.0024C215.32 73.2224 213.66 74.4624 211.99 75.7124C211.52 75.9724 211.01 76.1424 210.48 76.2424C209.28 76.1424 209 75.5824 209.65 74.5624C211.65 72.6424 213.63 70.7324 215.58 68.8124C215.69 68.3524 215.68 67.8824 215.54 67.4224C215.09 66.4724 214.53 65.5924 213.85 64.7824C213.88 64.5224 213.91 64.2524 213.94 63.9924C215.19 63.0524 216.19 63.3024 216.93 64.7424Z" fill="#7B282A" fill-opacity="0.047" stroke="#7B282A" stroke-opacity="0.047" stroke-width="0.5"/>
<path fill-rule="evenodd" clip-rule="evenodd" d="M243.949 108.594C242.999 108.214 242.059 107.814 241.109 107.414C241.139 107.034 241.329 106.764 241.689 106.604C243.639 106.254 245.549 105.754 247.419 105.094C249.699 103.624 252.079 102.354 254.559 101.274C256.219 101.264 257.009 102.094 256.929 103.774C256.169 103.654 255.369 103.564 254.529 103.514C253.989 103.494 253.529 103.674 253.159 104.064C253.039 105.004 253.009 105.954 253.079 106.914C252.889 107.084 252.709 107.254 252.519 107.434C251.429 107.554 250.389 107.844 249.389 108.294C249.169 108.254 248.949 108.204 248.719 108.164C248.359 107.664 248.019 107.154 247.709 106.644C246.839 107.354 245.829 107.704 244.689 107.694C244.289 107.864 244.039 108.174 243.949 108.594Z" fill="#3B3A3A" fill-opacity="0.969"/>
<path fill-rule="evenodd" clip-rule="evenodd" d="M40.8984 89.0918C41.0284 89.9818 41.5484 90.4318 42.4584 90.4318C45.8084 90.3418 49.1684 90.3518 52.5184 90.4618C53.2884 90.3918 53.7984 89.9918 54.0384 89.2618C55.9884 89.8518 57.9184 90.4118 59.8284 90.9518C59.4984 91.3118 59.0684 91.5118 58.5584 91.5418C57.8784 91.6518 57.1884 91.7018 56.4984 91.6718C50.1384 91.3018 43.7784 91.3118 37.4184 91.6818C36.5484 91.7518 35.7884 91.5118 35.1484 90.9818C37.0384 90.3618 38.9584 89.7318 40.8984 89.0918Z" fill="#050406" fill-opacity="0.706"/>
<path fill-rule="evenodd" clip-rule="evenodd" d="M390.949 89.3417C391.239 89.9917 391.749 90.3417 392.479 90.3817C395.469 90.4317 398.449 90.3717 401.419 90.1917C401.889 89.9317 402.129 89.5417 402.129 89.0117C404.029 89.8517 405.959 90.5317 407.909 91.0417C407.589 91.4517 407.149 91.6317 406.609 91.5717C400.219 91.3717 393.829 91.3417 387.429 91.4917C386.909 91.5117 386.499 91.3317 386.199 90.9317C387.799 90.5417 389.379 90.0117 390.949 89.3417Z" fill="#050506" fill-opacity="0.69"/>
<path fill-rule="evenodd" clip-rule="evenodd" d="M208.148 97.9023C209.998 99.3623 211.968 100.632 214.068 101.702C214.038 101.852 214.008 102.012 213.978 102.172C214.748 102.582 215.538 102.942 216.358 103.252C216.018 103.212 215.688 103.182 215.348 103.142C214.798 103.222 214.578 103.522 214.678 104.062C213.078 103.252 211.428 102.602 209.728 102.112C209.578 102.142 209.428 102.172 209.278 102.212C208.988 100.752 208.618 99.3123 208.148 97.9023Z" fill="#370F0E" fill-opacity="0.988"/>
<path fill-rule="evenodd" clip-rule="evenodd" d="M209.73 102.113C211.43 102.603 213.08 103.253 214.68 104.063C217.57 105.383 220.55 106.393 223.64 107.093C226.27 107.223 228.86 107.623 231.4 108.303C232.35 108.373 233.31 108.373 234.26 108.303C234.04 109.183 233.52 109.753 232.69 110.013C231.45 109.463 230.22 109.463 229 110.023C228.22 109.673 227.41 109.513 226.57 109.533C226.21 109.943 226.05 110.413 226.09 110.953C225.68 111.463 225.14 111.693 224.47 111.643C223.68 111.683 222.98 111.443 222.37 110.933C222.07 111.083 221.76 111.183 221.43 111.243C220.84 110.353 220.13 109.573 219.31 108.903C219.89 107.453 219.5 107.163 218.14 108.033C217.51 109.063 217.13 110.173 217 111.343C215.62 110.813 214.25 110.253 212.9 109.673C213.07 109.133 213.1 108.573 212.98 108.013C212.47 107.533 211.92 107.113 211.33 106.733C211.48 106.133 211.49 105.543 211.38 104.943C210.68 104.083 210.13 103.143 209.73 102.113Z" fill="#313537" fill-opacity="0.969"/>
<path fill-rule="evenodd" clip-rule="evenodd" d="M73.2109 48.5929C73.8709 48.2729 74.4309 48.3829 74.8809 48.9329C74.1609 49.6429 73.6009 49.5329 73.2109 48.5929ZM105.891 49.5029C105.941 49.0229 106.181 48.6729 106.631 48.4629C107.161 48.2829 107.571 48.4129 107.851 48.8629C107.341 49.4629 106.691 49.6729 105.891 49.5029Z" fill="#09080A" fill-opacity="0.604"/>
<path fill-rule="evenodd" clip-rule="evenodd" d="M124.049 48.4536C124.839 48.2436 125.489 48.4436 125.989 49.0636C125.719 49.6036 125.279 49.7836 124.679 49.5836C124.199 49.3436 123.989 48.9636 124.049 48.4536Z" fill="#09080A" fill-opacity="0.553"/>
<path fill-rule="evenodd" clip-rule="evenodd" d="M91.7695 48.5927C92.2495 48.5027 92.6195 48.6627 92.8695 49.0627C92.2895 49.4627 91.9195 49.3027 91.7695 48.5927Z" fill="#040404" fill-opacity="0.588"/>
<path fill-rule="evenodd" clip-rule="evenodd" d="M241.26 105.094C242.16 104.434 243.19 104.094 244.35 104.064C245.61 103.944 246.87 103.994 248.11 104.204C249.06 104.604 250 105.004 250.95 105.384C251.76 106.054 252.57 106.034 253.4 105.344C254.01 105.814 254.67 106.164 255.4 106.394C256.32 106.304 257.23 106.344 258.13 106.504C256.21 107.304 254.26 108.044 252.29 108.734C249.09 109.634 245.82 110.214 242.5 110.454C236.18 110.914 230.01 110.144 224 108.134C224.13 106.964 224.51 105.854 225.14 104.824C226.5 103.954 226.89 104.244 226.31 105.694C227.13 106.364 227.84 107.144 228.43 108.034C228.76 107.974 229.07 107.874 229.37 107.724C229.98 108.234 230.68 108.474 231.47 108.434C232.14 108.484 232.68 108.254 233.09 107.744C233.05 107.204 233.21 106.734 233.57 106.324C234.41 106.304 235.22 106.464 236 106.814C237.22 106.254 238.45 106.254 239.69 106.804C240.52 106.544 241.04 105.974 241.26 105.094Z" fill="#181919" fill-opacity="0.878"/>
</svg>
