<svg width="697" height="177" viewBox="0 0 697 177" fill="none" xmlns="http://www.w3.org/2000/svg">
<path d="M247.717 90.5789L254.283 87.1579V34.9211H249.293L237.081 51.2368H235.768L236.424 33.0789H289.606L290.394 51.2368H288.949L276.869 34.9211H271.747V87.0263L278.313 90.5789V92.2895H247.848L247.717 90.5789ZM296.303 88.2105V30.4474L291.313 28.4737V27.2895L309.96 24H311.929V51.3684L312.323 50.8421C316.788 47.0263 322.434 44.9211 328.343 44.9211C336.485 44.9211 340.162 49.5263 340.162 58.0789V88.3421L344.495 90.5789V92.2895H320.202V90.5789L324.667 88.2105V58.0789C324.667 53.3421 322.566 51.5 318.626 51.5C316.263 51.5 314.03 52.1579 312.192 53.6053V88.3421L316.525 90.7105V92.2895H292.232V90.7105L296.303 88.2105ZM359.859 70.5789C360.384 80.0526 364.586 87.4211 374.828 87.4211C379.687 87.4211 383.101 85.1842 386.384 83.4737V85.4474C381.919 90.7105 375.354 93.7368 368.525 93.6053C352.768 93.6053 344.889 84.9211 344.889 69.7895C344.889 54.9211 353.556 45.7105 367.737 45.7105C381.131 45.7105 388.091 52.2895 388.091 69.9211V70.4474L359.859 70.5789ZM359.596 68.3421L373.384 67.4211C373.384 55.5789 371.414 47.6842 367.343 47.6842C363.01 47.6842 359.596 56.8947 359.596 68.2105M160 115.447C160 90.3158 176.677 81.2368 195.192 81.2368C203.071 81.2368 210.424 82.5526 214.626 84.2632L215.02 101.895H213.182L202.283 84.7895C200.051 84 197.818 83.6053 195.455 83.7368C185.606 83.7368 180.616 95.1842 180.747 113.868C180.879 136.237 184.687 146.368 193.879 146.368C195.717 146.368 197.556 146.105 199.263 145.447V121.5L193.354 118.079V115.974H222.242V118.211L216.333 121.5V145.184C209.242 147.684 201.889 148.868 194.404 148.868C173.394 148.868 160 139 160 115.447ZM221.848 103.605V102.289L241.414 98.8684L243.515 99V137.158C243.515 141.895 245.747 143.211 249.424 143.211C251.919 143.211 254.152 142.158 255.727 140.316V106.105L250.475 103.737V102.158L269.778 98.8684L271.616 99.1316V142.947L276.869 145.053V146.5L257.697 148.868L255.859 148.737V142.947H255.333C251.394 146.632 246.141 148.868 240.758 148.868C231.434 148.868 226.97 143.342 226.97 135.053V106.105L221.848 103.605ZM345.939 98.7368L347.515 98.8684V113.079H348.04C350.141 102.684 354.606 98.8684 360.253 98.8684C361.04 98.8684 361.828 99 362.616 99.2632V113.737C361.303 113.474 359.99 113.342 358.677 113.342C355 113.211 351.455 114 348.172 115.447V143.342L352.636 145.842V147.553H327.293V145.842L331.889 143.342V105.184L326.636 103.605V102.289L345.939 98.7368ZM394.657 99.9211V85.0526L389.404 83.0789V81.8947L409.101 78.3421L410.808 78.6053V142.816L416.323 144.789V146.237L396.889 148.868L395.444 148.737V143.474H394.919C391.636 147.026 386.909 149 382.051 148.868C371.545 148.868 363.798 140.842 363.798 124.263C363.798 106.895 372.859 98.3421 386.384 98.3421C389.273 98.2105 392.03 98.7368 394.657 99.9211ZM394.657 140.974V102.816C393.212 101.632 391.374 100.974 389.404 101.105C384.152 101.237 380.869 109.263 380.869 123.342C380.869 135.974 383.232 143.079 390.061 142.816C391.768 142.816 393.343 142.289 394.657 140.974ZM437.727 98.8684H439.434V143.605L443.899 145.974V147.553H418.687V145.842L423.152 143.342V105.974L417.899 103.737V102.289L437.727 98.8684ZM439.566 86.7632C439.434 91.3684 435.626 95.1842 431.03 95.0526H430.899C426.303 95.0526 422.626 91.3684 422.626 86.7632C422.626 82.1579 426.303 78.4737 430.899 78.4737C435.626 78.3421 439.434 82.0263 439.566 86.7632ZM500.364 143.474V105.447L495.111 103.605V101.763L514.414 98.0789L516.384 98.3421V104H516.909C521.505 100.053 527.283 97.8158 533.323 97.8158C541.727 97.8158 545.535 101.763 545.535 110.711V143.342L550 145.842V147.553H524.788V145.842L529.384 143.342V111.763C529.384 106.763 527.283 104.789 523.212 104.789C520.848 104.789 518.485 105.579 516.646 107.026V143.342L520.98 145.842V147.553H495.899V145.842L500.364 143.474ZM472.394 119.789V113.342C472.394 103.737 470.424 100.711 464.515 100.711C463.859 100.711 463.071 100.711 462.414 100.711L451.909 115.184H450.465V102.026C456.111 100.053 462.152 99 468.192 98.8684C481.061 98.8684 488.545 102.421 488.545 113.342V144.263L493.141 145.579V146.763C490.253 148.211 486.97 149 483.687 148.868C477.253 148.868 474.232 146.763 472.788 143.342H472.394C469.768 147.026 465.828 149 459.788 149C452.172 149 446.919 144.263 446.919 135.974C446.919 128.079 451.909 123.605 462.02 121.763L472.394 119.789ZM472.394 141.105V121.895L469.242 122.158C464.121 122.553 462.414 125.711 462.414 132.947C462.414 140.711 464.909 142.684 468.455 142.684C470.03 142.816 471.475 142.158 472.394 141.105ZM304.051 119.526V113.342C304.051 103.737 301.949 100.579 296.04 100.579C295.384 100.579 294.727 100.711 294.071 100.842L283.434 114.921H282.121V101.763C287.768 99.7895 293.677 98.8684 299.717 98.7368C312.586 98.7368 320.071 102.289 320.071 113.211V144.132L324.667 145.447V146.632C321.778 148.079 318.495 148.868 315.212 148.737C308.778 148.737 305.758 146.632 304.313 143.211H303.919C301.293 146.895 297.354 148.868 291.444 148.868C283.697 148.868 278.576 144.132 278.576 135.842C278.576 127.947 283.434 123.474 293.545 121.632L304.051 119.526ZM304.051 140.974V121.895L300.768 122.158C295.778 122.553 293.939 125.711 293.939 132.947C293.939 140.711 296.566 142.684 299.98 142.684C301.556 142.816 303 142.158 304.051 140.974Z" fill="#121212"/>
</svg>
