<svg width="566" height="138" viewBox="0 0 566 138" fill="none" xmlns="http://www.w3.org/2000/svg">
<path fill-rule="evenodd" clip-rule="evenodd" d="M279.904 34.62C279.734 33.76 280.054 33.17 280.864 32.87C288.404 31.53 295.954 30.24 303.494 29C303.894 29.28 304.084 29.67 304.054 30.17C303.834 37.16 303.754 44.15 303.804 51.14C303.724 52.14 303.884 53.09 304.284 54C304.454 54.07 304.624 54.14 304.794 54.21C310.424 51.25 316.404 50.16 322.734 50.94C330.614 51.99 336.014 56.21 338.924 63.6C340.234 66.99 340.944 70.5 341.064 74.14C341.544 80.83 340.294 87.17 337.304 93.16C333.054 100.48 326.824 105.21 318.614 107.35C317.004 107.75 315.374 108.08 313.744 108.36C307.054 108.9 300.404 108.6 293.804 107.45C291.704 106.97 289.644 106.43 287.624 105.82C287.774 84.6 287.624 63.38 287.184 42.14C287.044 39.34 285.764 37.28 283.344 35.96C282.514 35.77 281.684 35.6 280.854 35.44C280.384 35.33 280.074 35.06 279.904 34.62ZM124.004 31.56C124.604 30.53 125.514 30.11 126.754 30.3C146.784 30.31 166.824 30.31 186.854 30.29C187.514 30.3 187.994 30.58 188.304 31.15C188.474 37.53 188.654 43.91 188.854 50.29C188.894 51.73 188.194 52.49 186.754 52.58C185.894 52.73 185.194 52.48 184.664 51.82C183.514 47.94 181.804 44.33 179.524 41C177.434 38.12 174.704 36.1 171.334 34.96C170.164 34.69 168.974 34.54 167.774 34.53C163.764 34.47 159.744 34.46 155.734 34.48C155.134 34.48 154.674 34.73 154.374 35.24C153.374 45.47 153.064 55.71 153.444 65.98C153.774 66.41 154.214 66.6 154.774 66.55C158.134 66.66 161.444 66.32 164.694 65.51C166.134 64.68 167.314 63.56 168.244 62.17C169.194 60.29 169.894 58.32 170.344 56.26C171.334 55.55 172.434 55.4 173.624 55.8C174.074 56.12 174.284 56.56 174.244 57.13C174.224 64.8 174.234 72.48 174.264 80.15C174.034 81.54 173.204 82.07 171.764 81.75C171.154 81.76 170.674 81.53 170.304 81.05C169.854 79.01 169.154 77.05 168.214 75.19C167.294 73.79 166.114 72.68 164.654 71.87C161.414 71.26 158.134 70.95 154.824 70.95C153.984 70.92 153.504 71.33 153.384 72.16C153.334 76.16 153.394 80.15 153.554 84.14C154.024 87.79 154.294 91.46 154.394 95.14C154.624 97.05 155.154 98.88 156.004 100.6C156.494 101.35 157.134 101.93 157.914 102.36C160.264 103.2 162.624 103.88 165.004 104.4C165.474 105.49 165.274 106.4 164.394 107.11C151.484 107.19 138.564 107.21 125.644 107.2C124.464 107.06 123.954 106.38 124.124 105.15C124.214 104.88 124.304 104.6 124.394 104.33C125.864 103.75 127.394 103.33 128.984 103.05C131.754 102.01 133.484 100.04 134.184 97.12C134.634 95.15 134.914 93.16 135.034 91.14C135.654 75.82 135.634 60.49 134.984 45.17C135.004 41.37 133.774 38.06 131.294 35.24C129.294 34.19 127.154 33.62 124.884 33.53C124.254 33.03 123.964 32.37 124.004 31.56ZM180.374 80.64C179.974 71.24 183.234 63.36 190.144 57.01C196.514 52.06 203.724 49.99 211.774 50.78C223.364 51.69 231.054 57.64 234.824 68.62C236.664 75.4 236.754 82.19 235.094 89.01C231.544 99.97 224.094 106.43 212.744 108.4C206.164 109.33 199.864 108.39 193.864 105.57C186.724 101.46 182.424 95.33 180.984 87.19C180.584 85.02 180.374 82.84 180.374 80.64ZM236.214 105.66C236.234 104.97 236.514 104.43 237.064 104.03C238.764 103.94 240.334 103.46 241.784 102.59C243.274 100.71 243.994 98.55 243.954 96.11C244.334 86.12 244.344 76.13 243.984 66.14C243.894 64.2 243.504 62.33 242.804 60.53C241.254 58.72 239.284 57.73 236.874 57.55C236.244 56.96 236.174 56.3 236.674 55.58C237.324 55.2 238.024 54.94 238.774 54.82C245.744 53.53 252.714 52.26 259.684 51.03C260.324 51.1 260.664 51.46 260.714 52.1C260.694 54.8 260.604 57.5 260.424 60.19C260.324 60.64 260.444 61 260.764 61.28C262.564 59.22 264.394 57.16 266.254 55.11C270.764 50.96 275.934 49.79 281.764 51.58C283.054 51.92 283.434 52.7 282.904 53.93C281.324 58.24 279.564 62.44 277.614 66.55C277.044 66.73 276.484 66.7 275.934 66.46C271.654 64.35 267.264 64.07 262.764 65.62C261.804 65.89 261.084 66.43 260.584 67.27C260.254 75.22 260.214 83.17 260.434 91.14C260.474 94.16 260.764 97.16 261.324 100.13C261.664 101.62 262.534 102.69 263.924 103.33C265.734 103.68 267.564 103.94 269.414 104.11C270.214 104.86 270.364 105.73 269.854 106.74C268.254 107.13 266.614 107.33 264.944 107.37C264.164 106.78 263.384 106.77 262.604 107.36C254.584 107.2 246.564 107.14 238.534 107.19C237.324 107.28 236.544 106.77 236.214 105.66ZM345.444 80.64C345.584 76.43 346.284 72.32 347.564 68.31C352.874 55.91 362.274 50.06 375.774 50.77C385.984 51.78 392.454 57.25 395.194 67.15C396.054 70.08 396.404 73.07 396.244 76.11C395.644 76.9 394.824 77.22 393.804 77.09C383.594 77.02 373.384 77.05 363.174 77.17C362.734 77.37 362.494 77.71 362.444 78.2C362.434 81.41 362.864 84.56 363.724 87.65C366.304 95.41 371.654 99.69 379.774 100.48C383.134 100.8 386.404 100.39 389.574 99.24C390.984 98.51 392.394 97.8 393.804 97.1C394.964 97.2 395.384 97.83 395.054 99C393.444 101.11 391.514 102.86 389.254 104.27C382.944 108.13 376.124 109.51 368.804 108.38C357.534 106.32 350.164 99.85 346.684 88.94C346.104 86.2 345.694 83.43 345.444 80.64ZM399.274 91.64C398.824 89.62 399.584 88.69 401.564 88.87C402.684 90.74 403.704 92.68 404.634 94.69C407.144 99.78 411.194 102.69 416.774 103.4C421.994 103.89 425.354 101.64 426.854 96.66C427.404 92.68 425.884 89.77 422.294 87.93C417.974 85.97 413.604 84.11 409.194 82.36C402.914 79.21 399.984 74.14 400.404 67.14C401.104 61.24 404.054 56.83 409.244 53.91C412.504 52.04 416.014 51 419.774 50.8C424.474 50.53 429.134 50.87 433.744 51.83C435.484 52.19 437.124 52.82 438.644 53.7C439.034 54.11 439.224 54.59 439.224 55.15C439.264 58.82 439.324 62.49 439.414 66.16C439.484 67.04 439.194 67.76 438.534 68.3C437.824 68.44 437.234 68.25 436.754 67.73C435.584 64.15 433.754 60.96 431.264 58.15C428.324 55.43 424.874 54.33 420.914 54.86C417.364 56 415.434 58.42 415.144 62.14C414.814 64.78 415.714 66.91 417.834 68.51C418.994 69.46 420.224 70.28 421.544 70.98C424.704 72.56 427.954 73.93 431.294 75.09C433.934 76.29 436.344 77.86 438.504 79.78C440.284 81.61 441.474 83.78 442.084 86.27C443.194 92.4 441.664 97.76 437.484 102.35C433.784 105.59 429.494 107.58 424.614 108.34C417.004 109.16 409.534 108.46 402.224 106.22C401.184 106.08 400.334 105.61 399.684 104.82C399.424 100.43 399.284 96.04 399.274 91.64ZM197.564 78.64C197.534 82.82 197.824 86.98 198.444 91.12C199.024 94.23 200.044 97.19 201.514 99.99C203.984 104.48 207.574 105.82 212.284 104.01C214.784 102.35 216.434 100.05 217.224 97.12C219.874 85.83 219.774 74.56 216.934 63.32C216.024 60.22 214.304 57.67 211.784 55.68C208.234 53.71 205.034 54.17 202.174 57.05C200.444 59.56 199.264 62.32 198.614 65.31C198.024 69.74 197.674 74.18 197.564 78.64ZM362.464 71.58C362.824 72.62 363.584 73.06 364.744 72.89C369.094 72.73 373.444 72.66 377.794 72.68C378.404 72.73 378.904 72.53 379.304 72.07C379.804 67.04 379.034 62.2 376.994 57.56C374.854 54.26 372.104 53.63 368.754 55.67C366.554 57.72 365.014 60.2 364.134 63.09C363.424 65.89 362.864 68.72 362.464 71.58ZM303.684 78.64C303.584 87.11 303.824 95.56 304.374 104C304.554 104.17 304.734 104.33 304.914 104.5C311.854 105.83 316.954 103.35 320.224 97.05C321.694 93.89 322.724 90.59 323.304 87.15C324.244 80.85 324.094 74.58 322.854 68.34C321.864 63.43 319.134 59.93 314.634 57.84C311.434 57.16 308.244 57.22 305.074 58.01C304.154 58.52 303.714 59.3 303.754 60.35C303.704 66.44 303.674 72.54 303.684 78.64Z" fill="#020202" fill-opacity="0.996" stroke="#020202" stroke-opacity="0.996" stroke-width="0.5"/>
<path fill-rule="evenodd" clip-rule="evenodd" d="M371.832 44.7706C372.832 39.9206 374.062 35.1306 375.532 30.4006C375.872 30.0106 376.292 29.8006 376.812 29.7906C377.702 29.6906 378.572 29.7706 379.432 30.0306C379.822 30.3206 380.062 30.7206 380.142 31.2006C380.952 35.2506 381.992 39.2406 383.262 43.1606C383.742 45.1806 382.992 45.9406 381.022 45.4306C380.502 44.5506 380.042 43.6406 379.642 42.6906C378.652 42.4606 377.652 42.2406 376.642 42.0106C376.202 42.0506 375.802 42.1906 375.442 42.4506C375.082 43.3506 374.702 44.2506 374.292 45.1406C373.352 45.8606 372.532 45.7406 371.832 44.7706ZM395.912 42.6406C395.952 39.1306 395.962 35.6206 395.942 32.1106C395.742 30.6406 396.352 29.8406 397.782 29.7206C400.142 29.4706 402.382 29.8706 404.482 30.9406C406.232 32.5606 406.652 34.4906 405.752 36.7206C404.822 37.5206 404.192 38.5006 403.872 39.6506C404.402 41.0406 405.062 42.3606 405.862 43.6206C406.502 44.8406 406.142 45.5306 404.802 45.7106C404.202 45.7106 403.712 45.4806 403.312 45.0406C402.392 43.5806 401.612 42.0506 400.962 40.4606C399.952 39.3706 399.312 39.5706 399.032 41.0706C399.032 42.0806 399.032 43.0906 399.032 44.1006C398.902 45.4106 398.172 45.9206 396.852 45.6206C396.032 44.8106 395.712 43.8206 395.912 42.6406ZM413.912 35.6306C414.472 31.6406 416.762 29.6406 420.782 29.6406C423.472 29.9706 425.172 31.4306 425.872 34.0406C425.322 34.6406 424.622 34.8606 423.792 34.7006C422.852 34.0306 422.002 33.2606 421.232 32.3906C419.452 31.9506 418.202 32.5606 417.472 34.2306C417.232 36.2006 417.172 38.1706 417.282 40.1506C417.702 43.0506 419.252 43.9306 421.942 42.7806C422.472 41.9706 423.112 41.2706 423.852 40.6706C426.112 40.4506 426.622 41.3106 425.362 43.2606C423.742 45.5706 421.532 46.4006 418.742 45.7706C416.492 45.4506 415.022 44.2106 414.322 42.0506C414.022 39.9206 413.882 37.7806 413.912 35.6306ZM427.042 44.7106C428.242 39.9806 429.462 35.2406 430.692 30.5106C431.842 29.7006 433.092 29.5306 434.452 30.0006C434.872 30.2806 435.142 30.6706 435.252 31.1606C436.392 35.1406 437.442 39.1406 438.402 43.1606C438.882 45.2706 438.102 46.0106 436.052 45.3806C435.562 44.4906 435.132 43.5706 434.762 42.6006C433.432 42.0906 432.092 42.0706 430.742 42.5506C430.262 43.1906 429.932 43.9206 429.752 44.7106C428.822 45.8506 427.922 45.8506 427.042 44.7106ZM399.072 34.6406C398.882 35.9606 399.432 36.7206 400.722 36.9306C403.172 36.4506 403.762 35.1206 402.482 32.9206C401.302 32.1706 400.222 32.2706 399.242 33.2106C399.082 33.6706 399.022 34.1506 399.072 34.6406ZM376.072 38.7006C376.352 39.4706 376.912 39.8306 377.742 39.7906C378.312 39.7506 378.682 39.4706 378.872 38.9606C378.412 37.2606 378.052 35.5506 377.782 33.8506C377.392 33.9606 377.102 34.2006 376.912 34.5706C376.572 35.9306 376.292 37.3106 376.072 38.7006ZM431.382 38.6006C431.512 39.3806 431.972 39.7906 432.782 39.8406C433.422 39.8806 433.882 39.6206 434.162 39.0506C433.852 37.2606 433.362 35.5406 432.682 33.8706C432.032 35.3706 431.602 36.9506 431.382 38.6006Z" fill="#040404" fill-opacity="0.961"/>
<path fill-rule="evenodd" clip-rule="evenodd" d="M385.322 32.6405C385.142 31.6105 385.362 30.6905 386.002 29.9105C388.252 29.7105 390.512 29.6405 392.772 29.7005C394.132 29.8605 394.552 30.5905 394.052 31.9005C393.882 32.0505 393.712 32.2005 393.542 32.3505C392.292 32.4705 391.022 32.5405 389.762 32.5605C389.212 32.6105 388.822 32.8905 388.602 33.3805C388.342 34.4705 388.472 35.4805 389.002 36.4305C390.132 36.6805 391.272 36.8905 392.412 37.0505C393.162 37.7805 393.162 38.5005 392.422 39.2105C391.542 39.4205 390.662 39.5305 389.762 39.5705C389.212 39.6105 388.822 39.8705 388.592 40.3605C388.532 41.6405 388.512 42.9205 388.512 44.1905C388.222 45.6805 387.372 46.1205 385.962 45.5205C385.802 45.3305 385.642 45.1405 385.492 44.9605C385.342 40.8605 385.282 36.7505 385.322 32.6405ZM408.422 39.6405C408.392 36.5705 408.462 33.5105 408.642 30.4505C409.182 29.8605 409.862 29.6405 410.672 29.7805C411.262 30.0005 411.592 30.4305 411.672 31.0605C411.732 35.4505 411.742 39.8405 411.692 44.2205C411.302 45.6905 410.412 46.1005 409.012 45.4405C408.872 45.2605 408.732 45.0805 408.592 44.9005C408.462 43.1505 408.412 41.4005 408.422 39.6405Z" fill="#030304" fill-opacity="0.949"/>
</svg>
