<svg width="697" height="138" viewBox="0 0 697 138" fill="none" xmlns="http://www.w3.org/2000/svg">
<path d="M76 23.9C76 24.4 81.3 39.9 87.9 58.2C94.4 76.5 100.9 95.2 102.4 99.8L105.2 108H117.1H129.1L130.9 103.7C131.9 101.4 141.4 82.7 151.9 62.1C162.4 41.5 171 24.3 171 23.8C171 23.4 166.2 23 160.3 23H149.5L144 34.8C141 41.2 134 55.9 128.5 67.3L118.4 88.2L108.2 56.8C102.6 39.5 98 24.8 98 24.2C98 23.3 94.8 23 87 23C80.8 23 76 23.4 76 23.9Z" fill="#FF0000"/>
<path d="M601.999 32.7006V42.5006H589.699C578.499 42.6006 576.999 42.8006 571.399 45.4006C560.999 50.1006 554.599 58.8006 551.999 71.5006C549.499 83.5006 553.199 96.7006 560.799 103.001C570.399 110.901 586.499 111.101 596.499 103.401L599.999 100.801V104.401V108.001H608.899H617.799L618.399 97.7006C618.699 92.1006 619.399 75.8006 619.999 61.5006C620.599 47.2006 621.399 32.7006 621.699 29.3006L622.299 23.0006H612.099H601.999V32.7006ZM598.899 56.7006C601.199 57.3006 601.199 57.4006 600.499 67.3006C599.599 80.0006 597.699 86.5006 593.599 90.6006C589.299 94.9006 584.499 95.8006 578.799 93.2006C573.199 90.8006 570.999 86.5006 570.999 78.3006C570.999 71.5006 573.399 65.8006 577.799 61.7006C582.499 57.2006 592.299 54.9006 598.899 56.7006Z" fill="#FF0000"/>
<path d="M180.4 43.5C169 45.5 169.3 45.3 168.6 52.1C168.2 55.5 168.1 58.4 168.3 58.6C168.5 58.9 172.3 58.1 176.6 56.9C187 54 198 53.8 200.9 56.4C206.1 61.1 202 64.7 187.3 68.4C169.6 72.9 163.5 76.5 160.4 84.6C158.9 88.5 158.9 89.9 159.9 94.2C162.4 105 168.7 109 183.4 109C195.1 109 195.3 108.9 197.1 101.9C198 98.6 198.3 95.7 197.9 95.4C197.5 95.2 195.1 95.5 192.6 96.1C183.6 98.3 176.2 94.3 178.8 88.5C180.2 85.5 183.3 83.9 192.9 81C196.9 79.8 200.9 78.6 201.8 78.3C203.1 77.8 203.2 79.2 202.6 89.6C202.2 96.1 201.6 103 201.3 104.7L200.8 108H210.9H221V101.2C221 97.5 221.5 85.7 222.2 75C223.2 57.3 223.2 55.2 221.7 52C219.6 47.7 215 44.4 209 43.1C203 41.7 189.1 41.9 180.4 43.5Z" fill="#FF0000"/>
<path d="M261.4 43.3996C259.1 44.0996 255.6 45.9996 253.6 47.4996L250 50.1996L250.6 47.0996L251.3 43.9996H241.3H231.3L230.6 59.6996C230 73.0996 228.6 95.9996 227.7 105L227.5 107.5L237.6 107.8L247.7 108.1L248.4 92.7996C249.4 69.0996 251.7 62.7996 260.6 59.3996C264.8 57.7996 265.6 57.7996 269.3 59.0996C277.6 61.9996 278.1 64.0996 276.7 91.6996L275.9 108H285.8H295.8L296.5 83.4996C296.9 69.9996 297 57.5996 296.6 55.8996C295.7 51.3996 292.4 47.1996 287.7 44.7996C282.4 42.0996 267.7 41.2996 261.4 43.3996Z" fill="#FF0000"/>
<path d="M329.001 43.1C317.601 45.3 307.001 54.2 302.901 64.8C300.301 71.6 299.801 84.1 301.901 91.2C303.601 97 308.901 103.4 314.401 106.2C319.601 108.9 330.301 109.7 336.501 108C339.001 107.3 342.901 105.4 345.201 103.8L349.301 100.8L348.501 106.7C347.501 114.7 345.701 118.6 341.801 120.9C335.601 124.7 330.801 124.6 308.801 120.3L306.101 119.8L306.701 127.1C307.001 131.2 307.701 134.8 308.301 135.1C310.001 136.3 326.401 138 335.501 138C346.701 138 354.701 135.8 359.801 131.4C366.401 125.8 367.101 122.6 368.101 96C368.601 83.1 369.401 66.5 370.001 59.1C370.601 51.8 370.901 45.5 370.601 45.3C370.401 45.1 366.201 44.2 361.401 43.4C351.701 41.9 336.101 41.7 329.001 43.1ZM347.301 57.1L351.101 58.1L350.501 66.3C349.201 83.6 346.601 89.9 339.601 93.1C334.501 95.4 332.501 95.4 327.401 93.1C322.201 90.7 320.001 86.3 320.001 78.3C320.101 68.2 325.401 60.2 334.101 57.5C339.501 55.8 342.401 55.7 347.301 57.1Z" fill="#FF0000"/>
<path d="M463.4 43.5C452 45.5 452.3 45.3 451.6 52.1C451.2 55.5 451.1 58.4 451.3 58.6C451.5 58.9 455.3 58.1 459.6 56.9C470 54 481 53.8 483.9 56.4C489.1 61.1 485 64.7 470.3 68.4C452.6 72.9 446.5 76.5 443.4 84.6C441.9 88.5 441.9 89.9 442.9 94.2C445.4 105 451.7 109 466.4 109C478.1 109 478.3 108.9 480.1 101.9C481 98.6 481.3 95.7 480.9 95.4C480.5 95.2 478.1 95.5 475.6 96.1C466.6 98.3 459.2 94.3 461.8 88.5C463.2 85.5 466.3 83.9 475.9 81C479.9 79.8 483.9 78.6 484.8 78.3C486.1 77.8 486.2 79.2 485.6 89.6C485.2 96.1 484.6 103 484.3 104.7L483.8 108H493.9H504V101.2C504 97.5 504.5 85.7 505.2 75C506.2 57.3 506.2 55.2 504.7 52C502.6 47.7 498 44.4 492 43.1C486 41.7 472.1 41.9 463.4 43.5Z" fill="#FF0000"/>
<path d="M540.099 43C538.799 43.6 536.499 44.9 534.899 46.1L531.999 48.1V46.1C531.999 44.1 531.399 44 522.699 44H513.299L512.699 67.7C512.299 80.8 511.699 95.2 511.399 99.7L510.699 108H520.699H530.799L531.199 89.7C531.699 70.4 532.299 67.4 536.699 62.8C540.499 58.8 545.299 57.5 550.099 59C552.299 59.7 554.199 60.1 554.499 59.9C554.699 59.6 554.599 55.6 554.199 51L553.499 42.5L547.999 42.3C544.999 42.2 541.399 42.5 540.099 43Z" fill="#FF0000"/>
<path d="M376.602 49.1993C376.302 52.0993 375.802 63.6993 375.402 74.9993C374.802 92.8993 374.902 95.9993 376.402 98.6993C380.202 106.099 389.102 109.599 401.902 108.699C409.802 108.199 414.602 106.499 418.702 102.699L420.902 100.699L420.302 104.399L419.702 107.999H429.302H438.802L439.402 98.7993C440.202 84.4993 442.002 48.7993 442.002 46.1993C442.002 44.0993 441.702 43.9993 432.502 43.9993C425.602 43.9993 423.002 44.2993 423.002 45.1993C422.902 45.8993 422.502 53.8993 422.002 62.8993C421.002 80.6993 419.402 86.2993 413.902 90.2993C410.102 92.9993 404.202 93.4993 400.002 91.2993C394.002 88.1993 393.502 85.9993 394.902 67.0993C395.502 57.9993 396.002 48.9993 396.002 47.1993V43.9993H386.602H377.202L376.602 49.1993Z" fill="#FF0000"/>
</svg>
