<?xml version="1.0" encoding="UTF-8"?>
<!DOCTYPE svg PUBLIC "-//W3C//DTD SVG 1.1//EN" "http://www.w3.org/Graphics/SVG/1.1/DTD/svg11.dtd">
<svg xmlns="http://www.w3.org/2000/svg" version="1.1" width="400px" height="231px" style="shape-rendering:geometricPrecision; text-rendering:geometricPrecision; image-rendering:optimizeQuality; fill-rule:evenodd; clip-rule:evenodd" xmlns:xlink="http://www.w3.org/1999/xlink">
<g><path fill="#d32f3c" fill-opacity="0.957" d="M 195.14,134.74 C 195.85,134.89 196.5,135.18 197.08,135.62 C 199.03,138.75 199.36,142.06 198.09,145.53 C 196.49,149.52 193.55,151.78 189.27,152.28 C 189.29,151.25 189.42,150.26 189.66,149.3 C 190.58,149.53 191.44,149.42 192.25,148.97 C 193.89,147.33 195.34,145.56 196.61,143.65 C 196.42,142.15 196.34,140.64 196.37,139.11 C 196.19,138.9 196.01,138.69 195.83,138.47 C 195.32,138.67 194.86,138.95 194.46,139.32 C 194.18,139.02 193.86,138.76 193.52,138.53 C 192.92,138.95 192.29,139.31 191.63,139.61 C 190.91,139.25 190.59,138.66 190.67,137.82 C 191.16,137.31 191.48,136.73 191.61,136.07 C 192.08,136.17 192.55,136.27 193.01,136.38 C 193.01,136.88 193.26,137.17 193.78,137.24 C 195.05,136.88 195.51,136.05 195.14,134.74 Z"/></g>
<g><path fill="#ea2e35" fill-opacity="0.996" stroke="#ea2e35" stroke-width="0.5" stroke-opacity="0.996" d="M 238.7,138.08 C 236.42,141.43 233.84,144.54 230.95,147.42 C 229.05,148.85 227.1,150.21 225.1,151.5 C 224.35,151.8 223.58,151.92 222.78,151.85 C 222.62,149.41 222.61,146.96 222.73,144.52 C 222.41,141.31 221.53,138.27 220.09,135.39 C 219.83,134.52 219.65,133.63 219.57,132.72 C 218.55,132.01 217.89,131.06 217.59,129.85 C 218.11,130.01 218.53,129.87 218.84,129.43 C 218.04,127.53 217.22,125.64 216.37,123.76 C 216.22,123.12 216.23,122.49 216.41,121.87 C 216.7,121.46 217.09,121.27 217.6,121.29 C 219.18,121.22 220.72,121.38 222.21,121.78 C 223.09,123.06 223.93,124.36 224.72,125.69 C 225.31,126.5 226.06,127.1 226.97,127.51 C 227.66,127.82 228.31,127.75 228.91,127.31 C 229.59,125.83 229.37,124.48 228.24,123.28 C 226.24,121.24 224.11,119.36 221.83,117.63 C 221.99,116.61 221.98,115.6 221.79,114.59 C 221.54,113.67 220.94,113.13 220,112.99 C 219.74,111.59 219.13,110.37 218.17,109.32 C 216.91,107.46 215.47,105.76 213.84,104.21 C 214.38,103.48 214.8,102.7 215.1,101.85 C 218,99.7 220.89,97.5 223.77,95.26 C 224.49,94.24 225.14,93.18 225.7,92.06 C 226.01,90.57 225.44,90 223.98,90.33 C 222.44,91.19 220.9,92.04 219.35,92.88 C 217.34,94.89 215.19,96.75 212.93,98.46 C 212.47,98.83 212.29,99.29 212.38,99.85 C 211.48,100.17 210.59,100.54 209.73,100.96 C 208.44,99.66 207.05,98.49 205.53,97.47 C 204.48,96.79 203.37,96.25 202.19,95.83 C 199.16,94.43 196.17,92.93 193.22,91.34 C 191.61,90.64 189.93,90.11 188.19,89.76 C 188.03,89.19 187.72,88.73 187.28,88.36 C 186.03,88.49 184.79,88.41 183.57,88.13 C 183.07,87.52 182.89,86.83 183.04,86.04 C 185.04,84.97 187.02,83.83 188.96,82.64 C 191.24,81.72 193.57,80.94 195.94,80.3 C 202.07,79.17 208.2,79.17 214.33,80.29 C 223.1,82.64 230.31,87.38 235.95,94.51 C 238.31,97.74 240.18,101.23 241.58,104.98 C 242.29,107.54 242.97,110.11 243.62,112.69 C 244,116.98 243.88,121.24 243.27,125.49 C 242.03,129.8 240.5,133.99 238.7,138.08 Z M 178.72,89.73 C 179.64,89.7 180.55,89.69 181.47,89.7 C 182.87,90.36 184.34,90.87 185.86,91.23 C 187.98,91.68 189.94,92.55 191.72,93.82 C 192.78,94.37 193.68,95.11 194.43,96.04 C 195.64,97.75 196.94,99.38 198.34,100.93 C 198.17,101.76 198.24,102.57 198.55,103.36 C 200.25,104.98 200.79,106.92 200.19,109.17 C 198.71,110.57 197.34,112.05 196.08,113.6 C 194.9,114.1 193.75,114.66 192.63,115.26 C 191.73,115.35 190.83,115.38 189.93,115.35 C 189.19,113.91 188.19,113.66 186.94,114.6 C 186.91,114.86 186.88,115.13 186.85,115.39 C 187.53,116.2 188.09,117.08 188.54,118.03 C 188.68,118.49 188.69,118.96 188.58,119.42 C 186.63,121.34 184.65,123.25 182.65,125.17 C 182,126.19 182.28,126.75 183.48,126.85 C 184.01,126.75 184.52,126.58 184.99,126.32 C 186.66,125.07 188.32,123.83 189.99,122.61 C 191.07,123.86 192.05,125.19 192.91,126.6 C 193.07,127.82 193.29,129.02 193.57,130.2 C 193.07,130.19 192.62,130.34 192.22,130.65 C 190.53,132.22 189.81,134.18 190.06,136.52 C 190.07,137.05 190.27,137.49 190.67,137.82 C 190.59,138.66 190.91,139.25 191.63,139.61 C 192.29,139.31 192.92,138.95 193.52,138.53 C 193.86,138.76 194.18,139.02 194.46,139.32 C 194.86,138.95 195.32,138.67 195.83,138.47 C 196.01,138.69 196.19,138.9 196.37,139.11 C 196.34,140.64 196.42,142.15 196.61,143.65 C 195.34,145.56 193.89,147.33 192.25,148.97 C 191.44,149.42 190.58,149.53 189.66,149.3 C 189.42,150.26 189.29,151.25 189.27,152.28 C 188.54,152.29 187.81,152.3 187.07,152.31 C 184.97,151.24 183,149.97 181.15,148.51 C 177.66,145.99 174.82,142.88 172.62,139.19 C 170.77,136.43 169.32,133.48 168.28,130.33 C 167.48,127.03 166.83,123.69 166.34,120.32 C 166.15,118.77 166.14,117.22 166.3,115.67 C 166.67,112.27 167.34,108.94 168.31,105.67 C 169.8,101.45 171.9,97.57 174.61,94.01 C 175.87,92.48 177.24,91.05 178.72,89.73 Z M 193.01,136.38 C 193.46,136.49 193.72,136.78 193.78,137.24 C 193.26,137.17 193.01,136.88 193.01,136.38 Z"/></g>
<g><path fill="#b34b53" fill-opacity="0.302" d="M 202.19,95.83 C 203.37,96.25 204.48,96.79 205.53,97.47 C 203.94,98.28 203.7,99.37 204.82,100.76 C 208.13,103.43 211.31,106.24 214.36,109.2 C 215.23,110.32 216.21,111.32 217.31,112.21 C 217.78,112.73 218.1,113.33 218.27,114.01 C 218.05,114.4 217.83,114.79 217.61,115.18 C 215.87,113.17 214.05,111.23 212.14,109.36 C 208.54,106.28 204.99,103.17 201.47,100.03 C 200.67,99.4 200.16,98.6 199.94,97.62 C 200.43,97.34 200.93,97.36 201.45,97.68 C 202.1,97.23 202.34,96.61 202.19,95.83 Z"/></g>
<g><path fill="#030303" fill-opacity="0.976" stroke="#030303" stroke-width="0.5" stroke-opacity="0.976" d="M 246.71,91.74 C 250.3,91.81 253.9,91.89 257.5,91.97 C 261.85,91.86 266.18,91.52 270.5,90.94 C 273.5,90.92 276.5,90.89 279.5,90.85 C 288.19,91.31 295.74,94.48 302.13,100.37 C 307.04,105.42 309.44,111.46 309.31,118.5 C 309.41,126.12 306.35,132.13 300.14,136.55 C 298.04,137.95 295.78,139.05 293.38,139.84 C 288.52,141.28 283.56,142.05 278.5,142.14 C 268.45,141.81 258.4,141.77 248.34,142.04 C 247.81,142.07 247.36,141.92 246.99,141.56 C 248.56,141.18 250.13,140.75 251.7,140.27 C 253.09,139.69 254.07,138.7 254.65,137.32 C 256.82,123.53 256.8,109.74 254.59,95.95 C 252.9,93.46 250.53,92.37 247.5,92.68 C 247.04,92.53 246.78,92.21 246.71,91.74 Z M 0,91.99 C 1.83,91.57 3.66,91.58 5.5,92.02 C 16.84,92.09 28.18,91.96 39.5,91.63 C 41.04,91.45 42.35,91.89 43.45,92.94 C 43.96,96.83 44.41,100.74 44.79,104.65 C 44.78,106.12 44.27,106.34 43.26,105.31 C 40.79,96.93 35.2,93.2 26.49,94.14 C 25.3,94.05 24.54,94.56 24.19,95.68 C 23.96,96.61 23.85,97.54 23.86,98.49 C 23.83,110.5 23.89,122.5 24.05,134.51 C 24.02,136.88 25.02,138.67 27.04,139.87 C 26.8,140.6 26.29,141 25.52,141.07 C 22.17,140.96 18.81,140.95 15.46,141.04 C 14.55,141.04 14.03,140.59 13.9,139.7 C 15.57,138.22 16.4,136.34 16.39,134.07 C 16.59,121.32 16.54,108.57 16.25,95.84 C 15.73,94.67 14.82,94.08 13.5,94.07 C 8.22,93.65 3.72,95.3 0,99.02 C 0,96.68 0,94.33 0,91.99 Z M 262.31,113 C 262.33,120.15 262.34,127.31 262.34,134.46 C 263.03,136.62 264.48,137.99 266.71,138.56 C 268.9,139.43 271.16,139.89 273.5,139.97 C 277.89,140.34 282.21,139.94 286.45,138.75 C 293.94,136.32 298.43,131.24 299.9,123.5 C 300.8,118.63 300.61,113.81 299.33,109.05 C 296,100.78 289.99,95.57 281.31,93.42 C 276.76,92.63 272.22,92.6 267.66,93.32 C 266.4,93.6 265.21,94.05 264.08,94.67 C 263.21,95.59 262.74,96.69 262.65,97.98 C 262.51,102.98 262.4,107.99 262.31,113 Z M 102.25,141.29 C 104.61,141.35 106.61,140.56 108.26,138.91 C 108.75,138.19 109.08,137.4 109.24,136.54 C 109.47,134.87 109.6,133.19 109.64,131.51 C 109.62,124.17 109.62,116.84 109.64,109.5 C 109.59,107.82 109.43,106.14 109.15,104.48 C 108.82,103.23 108.16,102.19 107.17,101.36 C 105.73,100.91 104.26,100.64 102.74,100.58 C 102.25,99.97 102.24,99.33 102.69,98.67 C 104.61,98.94 106.55,99.2 108.5,99.44 C 110.83,99.43 113.17,99.43 115.5,99.46 C 117.92,99.47 120.28,99.13 122.59,98.42 C 122.83,98.93 122.8,99.43 122.48,99.91 C 120.13,100.18 118.19,101.2 116.67,102.99 C 116.36,103.45 116.15,103.95 116.06,104.5 C 115.7,115.17 115.69,125.83 116.03,136.5 C 116.34,138.75 117.6,140.18 119.79,140.79 C 120.98,141.11 122.19,141.31 123.41,141.38 C 123.44,141.47 123.47,141.55 123.5,141.64 C 122.99,142.18 122.36,142.43 121.61,142.39 C 117.93,141.86 114.23,141.68 110.5,141.86 C 108.16,141.76 105.85,141.96 103.58,142.46 C 102.76,142.48 102.32,142.09 102.25,141.29 Z M 125.26,127.24 C 125.86,127.17 126.34,127.35 126.73,127.79 C 129.33,132.82 133.08,136.74 137.97,139.56 C 142.6,141.58 147.18,141.5 151.71,139.32 C 155.41,136.42 156.02,132.97 153.54,128.98 C 152.17,127.28 150.5,125.97 148.54,125.04 C 144.38,123.13 140.19,121.32 135.96,119.59 C 132.36,118.25 129.69,115.89 127.95,112.51 C 126.87,109.58 127.15,106.76 128.78,104.06 C 131.41,100.42 134.98,98.44 139.49,98.11 C 142.52,98.13 145.51,98.44 148.49,99.05 C 151.2,99.66 153.91,100.24 156.64,100.79 C 158.17,101.02 159.08,101.88 159.35,103.36 C 159.1,105.43 158.74,107.48 158.27,109.51 C 158.28,110.05 158.31,110.59 158.38,111.13 C 158.31,111.51 158.09,111.7 157.7,111.7 C 157.17,110.08 156.48,108.49 155.63,106.94 C 152.23,102.72 147.81,100.48 142.38,100.21 C 140.4,100.15 138.47,100.42 136.58,101.01 C 132.86,102.76 131.78,105.53 133.35,109.34 C 134.69,111.33 136.46,112.81 138.67,113.78 C 143.41,115.61 148.08,117.61 152.66,119.78 C 158.38,122.64 160.85,127.22 160.05,133.52 C 158.61,138.45 155.36,141.45 150.28,142.52 C 148.52,142.95 146.73,143.19 144.91,143.23 C 139.72,142.65 134.55,141.86 129.42,140.87 C 128.64,140.27 128.16,139.48 127.98,138.49 C 127.24,134.7 126.33,130.95 125.26,127.24 Z M 46.81,142.17 C 46.82,141.66 47.08,141.35 47.58,141.23 C 51.07,140.89 52.93,138.98 53.17,135.5 C 53.29,125.5 53.28,115.5 53.11,105.5 C 52.95,103.27 51.88,101.67 49.91,100.71 C 49.33,100.29 49.24,99.8 49.65,99.26 C 52.04,99.42 54.44,99.5 56.85,99.5 C 57.42,99.4 57.98,99.27 58.54,99.1 C 59.16,99.88 59.87,99.96 60.68,99.34 C 61.46,99.25 62.2,99.38 62.89,99.72 C 62.9,99.93 62.92,100.13 62.94,100.34 C 62.46,100.92 61.88,101.38 61.21,101.73 C 59.9,103.79 59.37,106.05 59.61,108.5 C 59.52,111.1 59.62,113.68 59.92,116.25 C 60.54,117.13 61.4,117.58 62.5,117.59 C 69.18,117.52 75.85,117.52 82.52,117.57 C 84.87,117.84 86.06,116.82 86.07,114.5 C 86.12,111.5 86.08,108.5 85.94,105.5 C 85.84,103.25 84.77,101.69 82.71,100.81 C 81.91,99.87 82.12,99.37 83.34,99.33 C 87.34,99.47 91.33,99.49 95.32,99.37 C 95.75,99.54 95.87,99.84 95.68,100.26 C 94.84,101 94.09,101.81 93.42,102.68 C 92.88,103.62 92.57,104.63 92.48,105.71 C 92.26,115.62 92.24,125.54 92.41,135.45 C 92.5,137.84 93.58,139.61 95.67,140.76 C 96.82,140.92 97.93,141.19 99,141.59 C 98.6,141.92 98.14,142.05 97.6,141.99 C 91.87,141.82 86.14,141.81 80.41,141.96 C 79.91,142 79.45,141.88 79.05,141.59 C 80.61,141.37 82.1,140.87 83.51,140.12 C 84.56,139.45 85.29,138.52 85.69,137.34 C 86.19,131.82 86.2,126.29 85.72,120.77 C 84.75,120.16 83.67,119.87 82.5,119.89 C 76.16,119.89 69.83,119.87 63.5,119.85 C 62.54,119.8 61.6,119.91 60.69,120.19 C 60.23,120.54 59.97,121.01 59.9,121.59 C 59.55,126.56 59.53,131.53 59.83,136.51 C 60.14,138.75 61.38,140.21 63.56,140.88 C 64.46,140.88 65.28,141.11 66.01,141.58 C 65.62,141.96 65.14,142.11 64.58,142.01 C 58.65,141.74 52.73,141.8 46.81,142.17 Z M 304.13,141.13 C 307.1,140.61 309.34,139.03 310.83,136.39 C 314.83,127.72 318.78,119.03 322.67,110.32 C 324.07,107.24 325.31,104.09 326.38,100.88 C 327.21,99.9 328.23,99.22 329.45,98.85 C 330.05,98.88 330.54,99.12 330.93,99.59 C 331.61,100.29 332.2,101.07 332.68,101.92 C 337.18,113.4 341.73,124.86 346.33,136.3 C 346.94,137.57 347.79,138.65 348.88,139.54 C 350.25,140.31 351.64,140.99 353.03,141.55 C 352.66,141.99 352.18,142.16 351.58,142.05 C 345.85,141.81 340.11,141.8 334.38,142.04 C 333.85,142.12 333.41,141.98 333.06,141.61 C 334.03,141.13 335.07,140.85 336.18,140.78 C 338.41,139.96 339.42,138.39 339.22,136.05 C 337.93,132.19 336.48,128.38 334.85,124.65 C 334,123.57 332.89,123.03 331.51,123.03 C 328.17,123.02 324.83,123.02 321.49,123.02 C 320.18,123.19 319.17,123.85 318.46,124.99 C 317.1,128.31 315.79,131.65 314.53,135.01 C 314.02,136.82 314.46,138.34 315.84,139.58 C 316.99,140.31 318.25,140.78 319.61,140.99 C 319.74,141.17 319.86,141.34 319.99,141.52 C 319.62,141.94 319.15,142.11 318.57,142.02 C 314.21,141.81 309.84,141.8 305.48,141.99 C 304.83,141.99 304.38,141.71 304.13,141.13 Z M 375.13,139.62 C 375.13,140.15 374.89,140.54 374.42,140.8 C 371.45,140.98 368.47,141.04 365.48,140.99 C 364.75,140.95 364.24,140.6 363.95,139.95 C 365.69,139 366.62,137.51 366.76,135.48 C 366.79,132.15 366.79,128.83 366.78,125.5 C 366.75,124.42 366.52,123.39 366.09,122.4 C 361.02,116.17 355.81,110.04 350.46,104.03 C 348.54,102.27 346.33,101.07 343.81,100.44 C 343.4,100.34 343.16,100.1 343.09,99.7 C 343.5,99.37 343.96,99.22 344.5,99.24 C 349.75,99.42 355.02,99.51 360.29,99.51 C 361.37,99.38 362.45,99.24 363.54,99.1 C 364.12,99.02 364.6,99.2 364.98,99.64 C 364.91,99.82 364.84,99.99 364.76,100.17 C 363.91,100.4 363.06,100.6 362.2,100.77 C 359.96,101.65 359.27,103.24 360.12,105.53 C 360.46,106.42 360.92,107.24 361.49,108 C 364.05,111.12 366.58,114.26 369.07,117.43 C 369.92,118.17 370.72,118.96 371.46,119.82 C 371.71,120.12 372.04,120.24 372.43,120.18 C 374.17,118.85 375.63,117.24 376.8,115.37 C 378.43,112.94 380.06,110.5 381.69,108.07 C 382.7,106.23 382.83,104.32 382.1,102.35 C 380.91,101.11 379.52,100.19 377.95,99.59 C 378.3,99.07 378.8,98.85 379.45,98.93 C 380.2,99.14 380.95,99.31 381.71,99.46 C 386.01,99.54 390.29,99.45 394.56,99.18 C 395.13,99.11 395.6,99.28 396,99.66 C 395.92,99.83 395.85,100 395.78,100.17 C 392.48,100.84 389.7,102.43 387.43,104.93 C 382.75,110.65 378.25,116.51 373.93,122.5 C 373.44,123.44 373.13,124.43 373.01,125.48 C 372.98,128.82 373.01,132.16 373.11,135.5 C 373.16,137.19 373.83,138.56 375.13,139.62 Z M 320.3,120.68 C 323.01,121.05 325.74,121.16 328.5,121.03 C 329.74,120.9 330.98,120.8 332.23,120.73 C 332.36,120.58 332.48,120.43 332.61,120.28 C 332.2,118.77 331.84,117.26 331.54,115.73 C 330.29,112.17 328.83,108.72 327.18,105.36 C 326.8,105.15 326.5,105.23 326.28,105.6 C 324.28,110.62 322.28,115.65 320.3,120.68 Z"/></g>
<g><path fill="#b5364e" fill-opacity="0.796" d="M 199.99,130.01 C 200.07,129.64 200.29,129.38 200.66,129.24 C 202.25,129.25 203.85,129.24 205.46,129.24 C 206.39,129.14 206.93,129.52 207.05,130.4 C 206.42,130.85 205.76,131.26 205.06,131.63 C 204.67,132.26 204.19,132.82 203.63,133.31 C 202.99,133.2 202.38,132.98 201.81,132.65 C 201.28,131.73 200.67,130.85 199.99,130.01 Z"/></g>
<g><path fill="#cf4955" fill-opacity="0.682" d="M 196.08,113.6 C 196.6,113.9 197.12,114.21 197.63,114.53 C 196.97,115.07 196.48,115.73 196.16,116.51 C 196.3,116.9 196.58,117.04 196.98,116.91 C 196.4,117.71 195.61,118.2 194.6,118.4 C 194.29,118.86 194.13,119.39 194.11,119.97 C 193.93,119.93 193.74,119.88 193.56,119.83 C 192.69,118.07 191.48,116.58 189.93,115.35 C 190.83,115.38 191.73,115.35 192.63,115.26 C 193.75,114.66 194.9,114.1 196.08,113.6 Z"/></g>
<g><path fill="#da4b54" fill-opacity="0.843" d="M 183.04,86.04 C 182.89,86.83 183.07,87.52 183.57,88.13 C 184.79,88.41 186.03,88.49 187.28,88.36 C 187.72,88.73 188.03,89.19 188.19,89.76 C 186.91,89.49 186.13,89.98 185.86,91.23 C 184.34,90.87 182.87,90.36 181.47,89.7 C 180.55,89.69 179.64,89.7 178.72,89.73 C 180.09,88.41 181.53,87.18 183.04,86.04 Z"/></g>
<g><path fill="#b73842" fill-opacity="0.545" d="M 220,112.99 C 220.94,113.13 221.54,113.67 221.79,114.59 C 221.98,115.6 221.99,116.61 221.83,117.63 C 221.46,117.76 221.08,117.89 220.71,118.02 C 219.96,117.7 219.23,117.37 218.5,117 C 218.06,116.47 217.77,115.86 217.61,115.18 C 217.83,114.79 218.05,114.4 218.27,114.01 C 219.29,114.32 219.86,113.98 220,112.99 Z"/></g>
<g><path fill="#c53542" fill-opacity="0.69" d="M 198.34,100.93 C 199.9,103.02 201.19,105.26 202.2,107.65 C 201.76,108.45 201.09,108.96 200.19,109.17 C 200.79,106.92 200.25,104.98 198.55,103.36 C 198.24,102.57 198.17,101.76 198.34,100.93 Z"/></g>
<g><path fill="#cb4a51" fill-opacity="0.506" d="M 202.2,107.65 C 202.82,108.26 203.37,108.94 203.86,109.66 C 204.71,109.81 205.56,109.95 206.42,110.08 C 206.3,111.04 206.29,112.04 206.39,113.07 C 206.17,113.02 205.95,112.96 205.72,112.9 C 205.25,112.38 204.8,111.84 204.38,111.28 C 204.18,111.3 203.98,111.31 203.78,111.33 C 202.32,112.84 200.77,114.27 199.13,115.63 C 198.47,116.16 197.76,116.58 196.98,116.91 C 196.58,117.04 196.3,116.9 196.16,116.51 C 196.48,115.73 196.97,115.07 197.63,114.53 C 197.12,114.21 196.6,113.9 196.08,113.6 C 197.34,112.05 198.71,110.57 200.19,109.17 C 201.09,108.96 201.76,108.45 202.2,107.65 Z"/></g>
<g><path fill="#c63638" fill-opacity="0.267" stroke="#c63638" stroke-width="0.5" stroke-opacity="0.267" d="M 188.19,89.76 C 189.93,90.11 191.61,90.64 193.22,91.34 C 192.39,91.96 191.89,92.79 191.72,93.82 C 189.94,92.55 187.98,91.68 185.86,91.23 C 186.13,89.98 186.91,89.49 188.19,89.76 Z"/></g>
<g><path fill="#d44755" fill-opacity="0.42" d="M 212.08,117.7 C 210.5,117.64 209.25,116.99 208.34,115.73 C 209.42,116.09 210.43,115.95 211.38,115.32 C 211.48,116.16 211.71,116.95 212.08,117.7 Z"/></g>
<g><path fill="#dd2d37" fill-opacity="0.969" stroke="#dd2d37" stroke-width="0.5" stroke-opacity="0.969" d="M 206.39,113.07 C 206.46,114.35 207.11,115.24 208.34,115.73 C 209.25,116.99 210.5,117.64 212.08,117.7 C 212.85,118.76 213.9,119.41 215.22,119.64 C 216.81,120.04 218.42,120.23 220.06,120.21 C 221.23,120.1 221.95,120.62 222.21,121.78 C 220.72,121.38 219.18,121.22 217.6,121.29 C 217.09,121.27 216.7,121.46 216.41,121.87 C 216.23,122.49 216.22,123.12 216.37,123.76 C 217.22,125.64 218.04,127.53 218.84,129.43 C 218.53,129.87 218.11,130.01 217.59,129.85 C 216.72,128.37 215.94,126.84 215.27,125.24 C 214.6,124.32 213.7,123.78 212.58,123.62 C 209.88,123.69 207.19,123.73 204.5,123.74 C 203.01,123.9 201.57,124.22 200.17,124.71 C 199.61,125.41 198.93,125.94 198.11,126.31 C 197.51,126.34 197.23,126.66 197.25,127.24 C 196.65,127.33 196.33,127.68 196.29,128.29 C 195.56,129.17 194.65,129.81 193.57,130.2 C 193.29,129.02 193.07,127.82 192.91,126.6 C 192.05,125.19 191.07,123.86 189.99,122.61 C 190.39,122.27 190.85,122.14 191.37,122.21 C 192.29,122.64 193.14,123.2 193.9,123.9 C 195.18,124.41 195.85,123.96 195.91,122.56 C 195.45,121.79 194.86,121.12 194.14,120.56 C 194.13,120.36 194.12,120.17 194.11,119.97 C 194.13,119.39 194.29,118.86 194.6,118.4 C 195.61,118.2 196.4,117.71 196.98,116.91 C 197.76,116.58 198.47,116.16 199.13,115.63 C 200.77,114.27 202.32,112.84 203.78,111.33 C 203.98,111.31 204.18,111.3 204.38,111.28 C 204.8,111.84 205.25,112.38 205.72,112.9 C 205.95,112.96 206.17,113.02 206.39,113.07 Z"/></g>
<g><path fill="#c93a44" fill-opacity="0.188" stroke="#c93a44" stroke-width="0.5" stroke-opacity="0.188" d="M 220.71,118.02 C 221.08,117.89 221.46,117.76 221.83,117.63 C 224.11,119.36 226.24,121.24 228.24,123.28 C 229.37,124.48 229.59,125.83 228.91,127.31 C 228.31,127.75 227.66,127.82 226.97,127.51 C 226.06,127.1 225.31,126.5 224.72,125.69 C 223.93,124.36 223.09,123.06 222.21,121.78 C 221.95,120.62 221.23,120.1 220.06,120.21 C 220.27,119.47 220.49,118.74 220.71,118.02 Z"/></g>
<g><path fill="#c64e57" fill-opacity="0.537" d="M 212.38,99.85 C 212.52,101.5 213.43,102.17 215.1,101.85 C 214.8,102.7 214.38,103.48 213.84,104.21 C 212.5,103.08 211.13,102 209.73,100.96 C 210.59,100.54 211.48,100.17 212.38,99.85 Z"/></g>
<g><path fill="#d85156" fill-opacity="0.525" d="M 195.14,134.74 C 195.51,136.05 195.05,136.88 193.78,137.24 C 193.72,136.78 193.46,136.49 193.01,136.38 C 192.55,136.27 192.08,136.17 191.61,136.07 C 192.63,135.23 193.8,134.79 195.14,134.74 Z"/></g>
<g><path fill="#cc3f4e" fill-opacity="0.663" d="M 198.11,126.31 C 197.86,126.66 197.57,126.97 197.25,127.24 C 197.23,126.66 197.51,126.34 198.11,126.31 Z M 197.25,127.24 C 196.98,127.64 196.66,127.98 196.29,128.29 C 196.33,127.68 196.65,127.33 197.25,127.24 Z"/></g>
<g><path fill="#160708" fill-opacity="0.012" stroke="#160708" stroke-width="0.5" stroke-opacity="0.012" d="M 217.59,129.85 C 217.89,131.06 218.55,132.01 219.57,132.72 C 219.65,133.63 219.83,134.52 220.09,135.39 C 221.53,138.27 222.41,141.31 222.73,144.52 C 222.61,146.96 222.62,149.41 222.78,151.85 C 222.33,152.52 221.77,153.07 221.09,153.5 C 214.34,156.46 207.3,157.49 199.98,156.57 C 196.36,155.96 192.82,155.06 189.36,153.86 C 188.54,153.55 187.75,153.19 186.98,152.78 C 187.01,152.62 187.04,152.46 187.07,152.31 C 187.81,152.3 188.54,152.29 189.27,152.28 C 193.55,151.78 196.49,149.52 198.09,145.53 C 199.36,142.06 199.03,138.75 197.08,135.62 C 196.5,135.18 195.85,134.89 195.14,134.74 C 193.8,134.79 192.63,135.23 191.61,136.07 C 191.48,136.73 191.16,137.31 190.67,137.82 C 190.27,137.49 190.07,137.05 190.06,136.52 C 189.81,134.18 190.53,132.22 192.22,130.65 C 192.62,130.34 193.07,130.19 193.57,130.2 C 194.65,129.81 195.56,129.17 196.29,128.29 C 196.66,127.98 196.98,127.64 197.25,127.24 C 197.57,126.97 197.86,126.66 198.11,126.31 C 198.93,125.94 199.61,125.41 200.17,124.71 C 201.57,124.22 203.01,123.9 204.5,123.74 C 207.19,123.73 209.88,123.69 212.58,123.62 C 213.7,123.78 214.6,124.32 215.27,125.24 C 215.94,126.84 216.72,128.37 217.59,129.85 Z M 199.99,130.01 C 200.67,130.85 201.28,131.73 201.81,132.65 C 202.38,132.98 202.99,133.2 203.63,133.31 C 204.19,132.82 204.67,132.26 205.06,131.63 C 205.76,131.26 206.42,130.85 207.05,130.4 C 206.93,129.52 206.39,129.14 205.46,129.24 C 203.85,129.24 202.25,129.25 200.66,129.24 C 200.29,129.38 200.07,129.64 199.99,130.01 Z"/></g>
<g><path fill="#420808" fill-opacity="0.906" d="M 239.45,139.16 C 239.2,138.8 238.95,138.44 238.7,138.08 C 240.5,133.99 242.03,129.8 243.27,125.49 C 243.88,121.24 244,116.98 243.62,112.69 C 242.97,110.11 242.29,107.54 241.58,104.98 C 240.18,101.23 238.31,97.74 235.95,94.51 C 230.31,87.38 223.1,82.64 214.33,80.29 C 208.2,79.17 202.07,79.17 195.94,80.3 C 193.57,80.94 191.24,81.72 188.96,82.64 C 187.02,83.83 185.04,84.97 183.04,86.04 C 181.53,87.18 180.09,88.41 178.72,89.73 C 177.24,91.05 175.87,92.48 174.61,94.01 C 171.9,97.57 169.8,101.45 168.31,105.67 C 167.34,108.94 166.67,112.27 166.3,115.67 C 166.14,117.22 166.15,118.77 166.34,120.32 C 166.83,123.69 167.48,127.03 168.28,130.33 C 169.32,133.48 170.77,136.43 172.62,139.19 C 172.24,139.52 171.86,139.85 171.47,140.18 C 167.57,134.19 165.37,127.63 164.87,120.5 C 164.4,106.73 169.42,95.36 179.92,86.41 C 185.45,82.16 191.64,79.38 198.49,78.06 C 207.47,76.78 215.99,78.22 224.05,82.37 C 236.2,89.28 243.25,99.66 245.2,113.5 C 245.25,115.5 245.31,117.5 245.36,119.5 C 245.01,121.15 244.86,122.81 244.93,124.49 C 244.1,129.76 242.27,134.65 239.45,139.16 Z"/></g>
<g><path fill="#0c0608" fill-opacity="0.976" d="M 238.7,138.08 C 238.95,138.44 239.2,138.8 239.45,139.16 C 239.14,139.72 238.89,140.3 238.68,140.9 C 238.46,142.06 238.81,143 239.73,143.69 C 240.3,143.74 240.85,143.86 241.39,144.03 C 241.66,144.38 241.64,144.71 241.33,145.03 C 238.52,148.83 235.19,152.1 231.35,154.83 C 230.86,155.72 230.29,156.56 229.66,157.34 C 227.87,158.44 226.03,159.43 224.13,160.32 C 223.23,160.16 222.32,160.12 221.4,160.21 C 220.67,159.98 220.01,159.63 219.4,159.16 C 218.57,159.85 217.76,159.87 216.95,159.2 C 217.04,158.78 217.29,158.47 217.69,158.3 C 218.83,158.31 219.84,157.96 220.71,157.25 C 221.02,157.76 221.36,158.27 221.72,158.77 C 221.95,158.81 222.17,158.86 222.39,158.9 C 223.39,158.45 224.43,158.16 225.52,158.04 C 225.71,157.86 225.89,157.69 226.08,157.52 C 226.01,156.56 226.04,155.61 226.16,154.67 C 226.53,154.28 226.99,154.1 227.53,154.12 C 228.37,154.17 229.17,154.26 229.93,154.38 C 230.01,152.7 229.22,151.87 227.56,151.88 C 225.08,152.96 222.7,154.23 220.42,155.7 C 218.55,156.36 216.64,156.86 214.69,157.21 C 214.33,157.37 214.14,157.64 214.11,158.02 C 212.87,157.81 211.61,157.76 210.35,157.88 C 209.19,157.91 208.16,158.25 207.26,158.91 C 206.31,158.98 205.35,158.98 204.4,158.91 C 201.86,158.23 199.27,157.83 196.64,157.7 C 193.55,157 190.57,155.99 187.68,154.67 C 187.58,154.13 187.8,153.83 188.35,153.75 C 188.69,153.79 189.02,153.82 189.36,153.86 C 192.82,155.06 196.36,155.96 199.98,156.57 C 207.3,157.49 214.34,156.46 221.09,153.5 C 221.77,153.07 222.33,152.52 222.78,151.85 C 223.58,151.92 224.35,151.8 225.1,151.5 C 227.1,150.21 229.05,148.85 230.95,147.42 C 233.84,144.54 236.42,141.43 238.7,138.08 Z"/></g>
<g><path fill="#361215" fill-opacity="0.02" stroke="#361215" stroke-width="0.5" stroke-opacity="0.02" d="M 193.22,91.34 C 196.17,92.93 199.16,94.43 202.19,95.83 C 202.34,96.61 202.1,97.23 201.45,97.68 C 200.93,97.36 200.43,97.34 199.94,97.62 C 200.16,98.6 200.67,99.4 201.47,100.03 C 204.99,103.17 208.54,106.28 212.14,109.36 C 214.05,111.23 215.87,113.17 217.61,115.18 C 217.77,115.86 218.06,116.47 218.5,117 C 219.23,117.37 219.96,117.7 220.71,118.02 C 220.49,118.74 220.27,119.47 220.06,120.21 C 218.42,120.23 216.81,120.04 215.22,119.64 C 213.9,119.41 212.85,118.76 212.08,117.7 C 211.71,116.95 211.48,116.16 211.38,115.32 C 210.43,115.95 209.42,116.09 208.34,115.73 C 207.11,115.24 206.46,114.35 206.39,113.07 C 206.29,112.04 206.3,111.04 206.42,110.08 C 205.56,109.95 204.71,109.81 203.86,109.66 C 203.37,108.94 202.82,108.26 202.2,107.65 C 201.19,105.26 199.9,103.02 198.34,100.93 C 196.94,99.38 195.64,97.75 194.43,96.04 C 193.68,95.11 192.78,94.37 191.72,93.82 C 191.89,92.79 192.39,91.96 193.22,91.34 Z"/></g>
<g><path fill="#181919" fill-opacity="0.878" d="M 207.26,158.91 C 208.16,158.25 209.19,157.91 210.35,157.88 C 211.61,157.76 212.87,157.81 214.11,158.02 C 215.06,158.42 216,158.82 216.95,159.2 C 217.76,159.87 218.57,159.85 219.4,159.16 C 220.01,159.63 220.67,159.98 221.4,160.21 C 222.32,160.12 223.23,160.16 224.13,160.32 C 222.21,161.12 220.26,161.86 218.29,162.55 C 215.09,163.45 211.82,164.03 208.5,164.27 C 202.18,164.73 196.01,163.96 190,161.95 C 190.13,160.78 190.51,159.67 191.14,158.64 C 192.5,157.77 192.89,158.06 192.31,159.51 C 193.13,160.18 193.84,160.96 194.43,161.85 C 194.76,161.79 195.07,161.69 195.37,161.54 C 195.98,162.05 196.68,162.29 197.47,162.25 C 198.14,162.3 198.68,162.07 199.09,161.56 C 199.05,161.02 199.21,160.55 199.57,160.14 C 200.41,160.12 201.22,160.28 202,160.63 C 203.22,160.07 204.45,160.07 205.69,160.62 C 206.52,160.36 207.04,159.79 207.26,158.91 Z"/></g>
<g><path fill="#0c0505" fill-opacity="0.98" stroke="#0c0505" stroke-width="0.5" stroke-opacity="0.98" d="M 172.62,139.19 C 174.82,142.88 177.66,145.99 181.15,148.51 C 181.62,149.92 181.99,151.36 182.28,152.82 C 182.43,152.78 182.58,152.75 182.73,152.72 C 183.13,153.75 183.68,154.69 184.38,155.55 C 184.49,156.15 184.48,156.74 184.33,157.34 C 184.92,157.72 185.47,158.14 185.98,158.62 C 186.1,159.18 186.07,159.74 185.9,160.28 C 184.15,159.5 182.49,158.58 180.9,157.53 C 180.27,156.81 179.72,156.03 179.25,155.19 C 175.64,152.55 172.41,149.49 169.57,146.02 C 169.19,145.59 168.99,145.09 168.98,144.52 C 169.87,144.07 170.65,143.47 171.33,142.72 C 171.61,141.89 171.66,141.04 171.47,140.18 C 171.86,139.85 172.24,139.52 172.62,139.19 Z"/></g>
<g><path fill="#89272c" fill-opacity="0.071" stroke="#89272c" stroke-width="0.5" stroke-opacity="0.071" d="M 215.1,101.85 C 213.43,102.17 212.52,101.5 212.38,99.85 C 212.29,99.29 212.47,98.83 212.93,98.46 C 215.19,96.75 217.34,94.89 219.35,92.88 C 220.9,92.04 222.44,91.19 223.98,90.33 C 225.44,90 226.01,90.57 225.7,92.06 C 225.14,93.18 224.49,94.24 223.77,95.26 C 220.89,97.5 218,99.7 215.1,101.85 Z"/></g>
<g><path fill="#5f2528" fill-opacity="0.035" stroke="#5f2528" stroke-width="0.5" stroke-opacity="0.035" d="M 205.53,97.47 C 207.05,98.49 208.44,99.66 209.73,100.96 C 211.13,102 212.5,103.08 213.84,104.21 C 215.47,105.76 216.91,107.46 218.17,109.32 C 219.13,110.37 219.74,111.59 220,112.99 C 219.86,113.98 219.29,114.32 218.27,114.01 C 218.1,113.33 217.78,112.73 217.31,112.21 C 216.21,111.32 215.23,110.32 214.36,109.2 C 211.31,106.24 208.13,103.43 204.82,100.76 C 203.7,99.37 203.94,98.28 205.53,97.47 Z"/></g>
<g><path fill="#7b282a" fill-opacity="0.047" stroke="#7b282a" stroke-width="0.5" stroke-opacity="0.047" d="M 189.93,115.35 C 191.48,116.58 192.69,118.07 193.56,119.83 C 193.74,119.88 193.93,119.93 194.11,119.97 C 194.12,120.17 194.13,120.36 194.14,120.56 C 194.86,121.12 195.45,121.79 195.91,122.56 C 195.85,123.96 195.18,124.41 193.9,123.9 C 193.14,123.2 192.29,122.64 191.37,122.21 C 190.85,122.14 190.39,122.27 189.99,122.61 C 188.32,123.83 186.66,125.07 184.99,126.32 C 184.52,126.58 184.01,126.75 183.48,126.85 C 182.28,126.75 182,126.19 182.65,125.17 C 184.65,123.25 186.63,121.34 188.58,119.42 C 188.69,118.96 188.68,118.49 188.54,118.03 C 188.09,117.08 187.53,116.2 186.85,115.39 C 186.88,115.13 186.91,114.86 186.94,114.6 C 188.19,113.66 189.19,113.91 189.93,115.35 Z"/></g>
<g><path fill="#3b3a3a" fill-opacity="0.969" d="M 216.95,159.2 C 216,158.82 215.06,158.42 214.11,158.02 C 214.14,157.64 214.33,157.37 214.69,157.21 C 216.64,156.86 218.55,156.36 220.42,155.7 C 222.7,154.23 225.08,152.96 227.56,151.88 C 229.22,151.87 230.01,152.7 229.93,154.38 C 229.17,154.26 228.37,154.17 227.53,154.12 C 226.99,154.1 226.53,154.28 226.16,154.67 C 226.04,155.61 226.01,156.56 226.08,157.52 C 225.89,157.69 225.71,157.86 225.52,158.04 C 224.43,158.16 223.39,158.45 222.39,158.9 C 222.17,158.86 221.95,158.81 221.72,158.77 C 221.36,158.27 221.02,157.76 220.71,157.25 C 219.84,157.96 218.83,158.31 217.69,158.3 C 217.29,158.47 217.04,158.78 216.95,159.2 Z"/></g>
<g><path fill="#050406" fill-opacity="0.706" d="M 13.9,139.7 C 14.03,140.59 14.55,141.04 15.46,141.04 C 18.81,140.95 22.17,140.96 25.52,141.07 C 26.29,141 26.8,140.6 27.04,139.87 C 28.99,140.46 30.92,141.02 32.83,141.56 C 32.5,141.92 32.07,142.12 31.56,142.15 C 30.88,142.26 30.19,142.31 29.5,142.28 C 23.14,141.91 16.78,141.92 10.42,142.29 C 9.55,142.36 8.79,142.12 8.15,141.59 C 10.04,140.97 11.96,140.34 13.9,139.7 Z"/></g>
<g><path fill="#050506" fill-opacity="0.69" d="M 363.95,139.95 C 364.24,140.6 364.75,140.95 365.48,140.99 C 368.47,141.04 371.45,140.98 374.42,140.8 C 374.89,140.54 375.13,140.15 375.13,139.62 C 377.03,140.46 378.96,141.14 380.91,141.65 C 380.59,142.06 380.15,142.24 379.61,142.18 C 373.22,141.98 366.83,141.95 360.43,142.1 C 359.91,142.12 359.5,141.94 359.2,141.54 C 360.8,141.15 362.38,140.62 363.95,139.95 Z"/></g>
<g><path fill="#370f0e" fill-opacity="0.988" d="M 181.15,148.51 C 183,149.97 184.97,151.24 187.07,152.31 C 187.04,152.46 187.01,152.62 186.98,152.78 C 187.75,153.19 188.54,153.55 189.36,153.86 C 189.02,153.82 188.69,153.79 188.35,153.75 C 187.8,153.83 187.58,154.13 187.68,154.67 C 186.08,153.86 184.43,153.21 182.73,152.72 C 182.58,152.75 182.43,152.78 182.28,152.82 C 181.99,151.36 181.62,149.92 181.15,148.51 Z"/></g>
<g><path fill="#313537" fill-opacity="0.969" d="M 182.73,152.72 C 184.43,153.21 186.08,153.86 187.68,154.67 C 190.57,155.99 193.55,157 196.64,157.7 C 199.27,157.83 201.86,158.23 204.4,158.91 C 205.35,158.98 206.31,158.98 207.26,158.91 C 207.04,159.79 206.52,160.36 205.69,160.62 C 204.45,160.07 203.22,160.07 202,160.63 C 201.22,160.28 200.41,160.12 199.57,160.14 C 199.21,160.55 199.05,161.02 199.09,161.56 C 198.68,162.07 198.14,162.3 197.47,162.25 C 196.68,162.29 195.98,162.05 195.37,161.54 C 195.07,161.69 194.76,161.79 194.43,161.85 C 193.84,160.96 193.13,160.18 192.31,159.51 C 192.89,158.06 192.5,157.77 191.14,158.64 C 190.51,159.67 190.13,160.78 190,161.95 C 188.62,161.42 187.25,160.86 185.9,160.28 C 186.07,159.74 186.1,159.18 185.98,158.62 C 185.47,158.14 184.92,157.72 184.33,157.34 C 184.48,156.74 184.49,156.15 184.38,155.55 C 183.68,154.69 183.13,153.75 182.73,152.72 Z"/></g>
<g><path fill="#09080a" fill-opacity="0.604" d="M 46.21,99.2 C 46.87,98.88 47.43,98.99 47.88,99.54 C 47.16,100.25 46.6,100.14 46.21,99.2 Z M 78.89,100.11 C 78.94,99.63 79.18,99.28 79.63,99.07 C 80.16,98.89 80.57,99.02 80.85,99.47 C 80.34,100.07 79.69,100.28 78.89,100.11 Z"/></g>
<g><path fill="#09080a" fill-opacity="0.553" d="M 97.05,99.06 C 97.84,98.85 98.49,99.05 98.99,99.67 C 98.72,100.21 98.28,100.39 97.68,100.19 C 97.2,99.95 96.99,99.57 97.05,99.06 Z"/></g>
<g><path fill="#040404" fill-opacity="0.588" d="M 64.77,99.2 C 65.25,99.11 65.62,99.27 65.87,99.67 C 65.29,100.07 64.92,99.91 64.77,99.2 Z"/></g>
</svg>
